SplineFontDB: 3.0
FontName: Untitled2
FullName: Untitled2
FamilyName: Untitled2
Weight: Regular
Copyright: Copyright (c) 2017, David Oranchak
UComments: "2017-11-11: Created with FontForge (http://fontforge.org)"
Version: 001.000
ItalicAngle: 0
UnderlinePosition: -80
UnderlineWidth: 40
Ascent: 600
Descent: 200
InvalidEm: 0
LayerCount: 2
Layer: 0 0 "Back" 1
Layer: 1 0 "Fore" 0
XUID: [1021 204 -544064099 5085066]
StyleMap: 0x0000
FSType: 0
OS2Version: 0
OS2_WeightWidthSlopeOnly: 0
OS2_UseTypoMetrics: 1
CreationTime: 1510439278
ModificationTime: 1510523746
OS2TypoAscent: 0
OS2TypoAOffset: 1
OS2TypoDescent: 0
OS2TypoDOffset: 1
OS2TypoLinegap: 72
OS2WinAscent: 0
OS2WinAOffset: 1
OS2WinDescent: 0
OS2WinDOffset: 1
HheadAscent: 0
HheadAOffset: 1
HheadDescent: 0
HheadDOffset: 1
OS2Vendor: 'PfEd'
MarkAttachClasses: 1
DEI: 91125
Encoding: ISO8859-1
UnicodeInterp: none
NameList: AGL For New Fonts
DisplaySize: -48
AntiAlias: 1
FitToEm: 0
WinInfo: 21 21 8
BeginPrivate: 0
EndPrivate
BeginChars: 256 73

StartChar: b
Encoding: 98 98 0
Width: 480
Flags: HW
LayerCount: 2
Fore
SplineSet
302 208 m 5
 294 206 283 205 270 204 c 4
 269 204 269 205 267 204 c 4
 242 201 223 199 212 196 c 4
 197 192 185 185 175 177 c 4
 174 177 174 177 174 176 c 4
 173 173 172 170 172 164 c 4
 172 160 172 158 172 151 c 4
 172 145 172 145 172 143 c 4
 172 124 177 110 186 100 c 4
 193 91 204 87 220 83 c 132
 236 79 256 76 280 77 c 4
 287 77 293 78 300 79 c 5
 300 85 300 92 301 100 c 4
 301 130 301 166 302 208 c 5
308 421 m 5
 305 422 301 422 294 422 c 4
 290 421 288 421 286 421 c 4
 251 421 224 413 204 396 c 4
 189 383 182 367 183 349 c 4
 184 334 191 322 206 312 c 4
 228 299 259 295 301 302 c 4
 303 302 303 302 305 302 c 4
 306 334 307 363 308 387 c 4
 309 402 307 412 308 421 c 5
148 255 m 5
 120 280 105 312 103 348 c 4
 101 390 117 425 151 455 c 4
 186 486 231 501 286 501 c 4
 288 501 289 501 293 502 c 4
 307 502 319 501 326 500 c 4
 332 499 338 498 343 496 c 5
 350 497 357 496 364 494 c 4
 373 491 380 486 385 478 c 132
 390 470 392 462 391 452 c 5
 395 442 392 432 388 422 c 5
 387 411 389 398 388 383 c 4
 387 344 385 297 383 242 c 4
 382 187 381 139 381 100 c 4
 380 88 380 77 380 68 c 5
 384 62 388 57 389 50 c 4
 391 38 389 26 380 17 c 5
 376 7 368 0 358 -4 c 4
 344 -10 331 -9 319 0 c 5
 307 -1 295 -2 283 -3 c 4
 252 -4 224 -2 201 4 c 4
 169 12 143 28 124 48 c 4
 103 73 92 104 92 143 c 4
 92 146 92 146 92 150 c 4
 92 160 92 160 92 164 c 4
 93 177 95 189 98 199 c 4
 103 215 112 228 124 238 c 4
 132 244 139 251 148 255 c 5
EndSplineSet
EndChar

StartChar: A
Encoding: 65 65 1
Width: 480
Flags: HW
LayerCount: 2
Fore
SplineSet
304 215 m 5
 301 224 298 236 294 249 c 4
 294 250 294 250 293 251 c 4
 283 287 276 312 271 329 c 4
 269 333 269 337 268 341 c 5
 264 335 260 329 256 322 c 4
 245 302 231 273 211 234 c 4
 208 230 205 226 204 224 c 4
 203 222 205 222 204 220 c 5
 237 215 269 213 304 215 c 5
318 433 m 4
 328 410 339 382 348 352 c 4
 354 334 362 308 372 272 c 4
 372 271 372 271 372 270 c 4
 385 222 396 187 404 164 c 4
 417 127 430 95 445 68 c 4
 451 58 453 47 450 36 c 132
 447 25 441 17 431 12 c 132
 421 7 412 5 401 8 c 132
 390 11 382 18 376 28 c 4
 358 59 342 95 328 137 c 5
 276 133 225 135 176 144 c 4
 172 145 169 146 165 148 c 5
 161 142 159 137 156 132 c 4
 136 97 118 66 100 39 c 4
 94 30 87 25 76 23 c 132
 65 21 54 23 45 29 c 132
 36 35 30 44 28 55 c 132
 26 66 29 75 35 84 c 4
 52 109 68 138 86 170 c 4
 98 191 113 221 133 260 c 4
 134 262 137 265 139 269 c 4
 159 309 174 340 186 360 c 4
 205 394 222 423 239 449 c 4
 245 458 253 464 264 466 c 132
 275 468 285 466 294 460 c 4
 298 457 302 454 305 450 c 4
 311 446 315 440 318 433 c 4
EndSplineSet
EndChar

StartChar: B
Encoding: 66 66 2
Width: 480
Flags: HW
LayerCount: 2
Fore
SplineSet
257 196 m 4
 239 195 219 194 199 196 c 5
 198 186 198 172 198 152 c 4
 197 119 196 95 196 80 c 5
 199 81 201 81 204 81 c 4
 205 81 207 81 211 81 c 132
 215 81 216 82 217 82 c 4
 251 85 278 90 300 97 c 4
 317 102 329 109 336 116 c 4
 340 120 340 121 340 125 c 4
 340 129 339 135 335 141 c 4
 323 161 302 176 274 188 c 4
 269 191 263 194 257 196 c 4
265 276 m 5
 291 278 312 283 327 292 c 4
 336 297 342 303 345 309 c 4
 347 313 348 319 346 324 c 4
 344 333 338 340 328 348 c 4
 316 360 300 370 280 377 c 4
 255 386 227 392 194 395 c 5
 198 361 198 323 199 279 c 5
 219 282 242 281 265 276 c 5
74 470 m 4
 166 482 244 477 308 452 c 4
 338 440 362 426 382 408 c 132
 402 390 415 370 422 348 c 4
 429 324 429 300 419 278 c 132
 409 256 392 237 369 223 c 5
 383 211 395 198 404 184 c 4
 416 164 421 144 420 124 c 4
 419 101 412 79 394 60 c 4
 363 27 305 9 223 3 c 4
 222 3 220 2 216 2 c 132
 212 2 212 2 211 1 c 4
 187 -1 166 -2 151 -1 c 4
 107 0 75 8 50 25 c 4
 41 31 35 39 33 50 c 132
 31 61 33 71 39 80 c 132
 45 89 53 94 64 97 c 132
 75 100 85 98 94 92 c 4
 99 88 106 85 116 83 c 5
 116 98 117 121 118 153 c 4
 119 187 119 212 119 230 c 4
 120 296 117 350 113 394 c 5
 103 393 94 392 84 391 c 4
 72 389 63 392 54 399 c 132
 45 406 41 415 39 426 c 132
 38 437 40 446 47 455 c 132
 54 464 63 468 74 470 c 4
EndSplineSet
EndChar

StartChar: C
Encoding: 67 67 3
Width: 480
Flags: HW
LayerCount: 2
Fore
SplineSet
363 378 m 4
 323 398 281 399 238 380 c 4
 218 371 201 360 185 345 c 132
 169 330 156 313 146 294 c 4
 126 256 121 223 133 195 c 4
 139 181 150 167 165 157 c 4
 185 145 210 137 241 132 c 4
 269 128 292 125 308 126 c 4
 328 127 342 132 354 141 c 4
 363 147 372 150 383 149 c 132
 394 148 403 144 410 135 c 132
 417 126 419 118 418 106 c 132
 416 94 413 85 404 78 c 4
 380 58 348 48 312 46 c 4
 290 45 262 47 228 52 c 4
 142 65 86 103 60 163 c 4
 48 190 45 217 48 246 c 132
 51 275 61 304 76 332 c 4
 90 359 109 383 132 404 c 132
 155 425 178 442 206 454 c 4
 272 482 337 482 399 449 c 4
 409 445 416 437 420 426 c 132
 424 415 421 405 416 395 c 132
 411 385 404 379 393 375 c 132
 382 371 373 374 363 378 c 4
EndSplineSet
EndChar

StartChar: D
Encoding: 68 68 4
Width: 480
Flags: HW
LayerCount: 2
Fore
SplineSet
195 79 m 5
 218 80 238 85 257 97 c 4
 290 117 312 146 324 188 c 4
 336 230 336 271 322 307 c 4
 307 345 280 371 241 383 c 4
 229 387 211 389 186 386 c 5
 179 268 182 165 195 79 c 5
121 461 m 4
 130 460 145 462 167 464 c 4
 171 465 172 465 174 465 c 4
 192 467 206 468 217 468 c 4
 235 467 252 464 266 460 c 4
 297 450 323 433 345 412 c 132
 367 391 384 365 396 336 c 4
 417 282 419 225 401 165 c 4
 383 103 349 58 298 28 c 4
 241 -6 175 -11 101 14 c 4
 90 18 82 24 78 34 c 132
 74 44 72 54 76 65 c 4
 79 73 83 80 90 84 c 132
 97 88 104 91 112 92 c 5
 101 177 100 275 106 384 c 5
 97 387 89 392 84 400 c 132
 79 408 76 416 77 426 c 4
 78 437 84 445 92 452 c 132
 100 459 109 462 121 461 c 4
EndSplineSet
EndChar

StartChar: E
Encoding: 69 69 5
Width: 480
Flags: HW
LayerCount: 2
Fore
SplineSet
373 389 m 5
 345 398 302 402 245 400 c 4
 222 399 194 398 158 394 c 4
 157 393 153 393 144 392 c 5
 142 377 140 359 139 341 c 4
 138 324 138 302 137 274 c 5
 155 268 182 267 218 271 c 4
 222 272 230 273 240 275 c 4
 273 279 297 281 312 281 c 4
 324 281 332 277 340 269 c 132
 348 261 352 253 352 241 c 132
 352 229 348 220 340 212 c 132
 332 204 324 201 312 201 c 4
 300 201 279 199 251 195 c 4
 241 194 233 193 228 192 c 4
 201 188 179 187 160 188 c 4
 151 189 143 190 136 191 c 5
 136 188 136 186 135 183 c 4
 135 179 134 176 134 172 c 132
 134 168 133 162 132 153 c 6
 132 148 l 6
 131 144 131 141 130 137 c 132
 129 133 129 131 128 129 c 4
 127 122 127 114 126 109 c 4
 125 99 125 91 124 85 c 5
 130 84 137 85 144 84 c 4
 168 82 200 82 241 83 c 4
 262 84 288 83 317 84 c 4
 321 84 328 83 340 84 c 132
 352 85 358 85 360 85 c 4
 374 86 385 86 390 86 c 4
 402 86 411 83 419 75 c 132
 427 67 430 57 430 46 c 132
 430 35 427 26 419 18 c 132
 411 10 402 5 390 5 c 4
 383 5 383 5 363 5 c 4
 361 5 354 5 342 4 c 132
 330 3 323 4 319 4 c 4
 290 3 264 4 243 3 c 4
 199 2 166 2 140 4 c 4
 123 5 110 6 99 8 c 4
 92 9 85 10 81 12 c 4
 71 16 64 22 59 28 c 4
 52 35 47 43 45 55 c 4
 44 61 44 68 44 76 c 4
 44 88 45 102 47 119 c 4
 48 125 48 132 49 140 c 4
 50 141 51 144 51 147 c 132
 51 150 51 152 52 155 c 132
 53 158 52 160 52 162 c 6
 53 164 l 6
 54 170 55 175 55 176 c 4
 55 180 55 183 56 187 c 4
 57 203 56 227 57 260 c 4
 58 298 59 327 60 347 c 4
 62 380 65 409 69 436 c 4
 70 439 71 440 72 444 c 4
 74 449 78 454 82 458 c 132
 86 462 91 466 96 468 c 4
 100 469 102 467 106 468 c 4
 110 468 119 469 131 471 c 132
 143 473 150 473 151 473 c 4
 187 477 217 479 242 480 c 4
 310 483 362 478 399 466 c 4
 403 464 403 464 406 463 c 4
 414 460 421 456 426 452 c 4
 440 440 447 426 444 408 c 4
 442 397 437 388 428 382 c 132
 419 376 409 373 397 375 c 4
 387 377 379 381 373 389 c 5
EndSplineSet
EndChar

StartChar: F
Encoding: 70 70 6
Width: 480
Flags: HW
LayerCount: 2
Fore
SplineSet
95 469 m 4
 136 463 188 461 252 462 c 4
 264 462 282 462 307 463 c 4
 344 464 372 465 391 465 c 4
 402 465 411 461 419 453 c 132
 427 445 431 437 431 425 c 132
 431 413 427 404 419 396 c 132
 411 388 402 385 391 385 c 4
 373 385 344 384 308 383 c 4
 283 382 264 382 252 382 c 4
 208 381 171 383 140 385 c 5
 144 351 146 315 148 279 c 5
 173 279 174 279 226 279 c 4
 270 278 302 278 323 278 c 4
 334 278 343 275 351 267 c 132
 359 259 363 250 363 239 c 132
 363 228 359 219 351 211 c 132
 343 203 334 198 323 198 c 4
 301 198 269 198 226 199 c 4
 174 199 173 199 149 199 c 5
 148 145 144 96 136 51 c 4
 134 39 129 30 120 24 c 132
 111 18 101 15 90 17 c 132
 79 19 71 25 64 34 c 132
 57 43 55 52 57 63 c 4
 66 115 69 173 69 236 c 132
 69 299 65 358 55 410 c 5
 51 418 48 426 50 436 c 4
 51 447 56 455 65 462 c 132
 74 469 84 471 95 469 c 4
EndSplineSet
EndChar

StartChar: G
Encoding: 71 71 7
Width: 480
Flags: HW
LayerCount: 2
Fore
SplineSet
144 164 m 5
 151 131 167 108 192 95 c 4
 225 77 256 73 284 85 c 4
 309 95 326 112 337 135 c 4
 344 152 344 164 337 172 c 4
 333 176 326 178 316 180 c 4
 301 184 280 183 256 179 c 4
 247 177 233 176 213 176 c 6
 202 176 l 6
 190 175 182 175 177 174 c 4
 176 174 177 174 175 174 c 6
 174 173 l 6
 165 166 156 163 144 164 c 5
326 391 m 4
 290 401 256 394 225 373 c 4
 195 353 172 323 157 282 c 4
 153 271 150 261 147 249 c 5
 152 251 158 251 164 252 c 4
 174 254 186 255 201 256 c 6
 214 256 l 6
 228 256 236 256 240 257 c 4
 311 271 363 261 396 227 c 4
 411 211 418 191 421 169 c 132
 424 147 420 124 410 102 c 4
 401 82 389 64 372 48 c 132
 355 32 335 21 314 12 c 4
 262 -8 209 -4 155 25 c 4
 106 51 77 94 65 154 c 4
 55 205 62 257 83 311 c 4
 104 366 136 409 180 439 c 4
 231 475 286 483 346 468 c 4
 357 465 366 461 371 451 c 132
 376 441 378 431 375 420 c 132
 372 409 366 401 356 396 c 132
 346 391 337 388 326 391 c 4
EndSplineSet
EndChar

StartChar: H
Encoding: 72 72 8
Width: 480
Flags: HW
LayerCount: 2
Fore
SplineSet
385 456 m 4
 391 420 396 377 400 333 c 4
 402 305 404 263 406 207 c 4
 410 132 412 76 416 40 c 4
 417 28 414 20 407 11 c 132
 400 2 391 -3 380 -4 c 132
 369 -5 360 -3 351 4 c 132
 342 11 337 20 336 32 c 4
 332 70 330 126 326 199 c 5
 280 198 221 198 150 195 c 5
 153 132 157 81 161 42 c 4
 163 30 160 21 153 12 c 132
 146 3 137 -1 126 -3 c 132
 115 -5 106 -1 97 5 c 132
 88 12 83 20 82 32 c 4
 76 84 71 148 68 226 c 4
 68 229 68 227 68 231 c 132
 68 235 68 233 68 237 c 4
 68 241 68 242 68 246 c 4
 66 349 70 421 81 461 c 4
 85 472 90 480 100 485 c 132
 110 490 120 492 131 489 c 132
 142 486 150 480 155 470 c 132
 160 460 162 451 159 440 c 4
 151 412 147 357 148 275 c 5
 219 278 277 278 323 279 c 5
 322 296 321 312 320 328 c 4
 317 370 313 409 307 443 c 4
 305 455 307 464 314 473 c 132
 321 482 329 487 340 489 c 132
 351 491 360 488 369 482 c 132
 378 476 383 467 385 456 c 4
EndSplineSet
EndChar

StartChar: I
Encoding: 73 73 9
Width: 480
Flags: HW
LayerCount: 2
Fore
SplineSet
23 52 m 4
 23 72 38 88 56 88 c 6
 408 86 l 6
 411 86 416 85 417 85 c 4
 437 83 449 66 448 46 c 4
 447 29 429 14 428 14 c 6
 55 16 l 6
 37 16 23 32 23 52 c 4
55 443 m 4
 59 446 65 448 73 450 c 4
 77 451 83 451 89 452 c 4
 100 453 114 453 131 454 c 4
 161 455 199 456 244 455 c 4
 284 454 321 454 355 452 c 4
 371 451 382 452 391 451 c 4
 396 450 401 451 404 450 c 4
 413 449 418 447 420 446 c 132
 422 445 425 442 429 436 c 4
 434 428 437 419 436 409 c 132
 435 399 431 391 424 385 c 4
 415 377 407 374 396 378 c 4
 395 378 395 378 395 378 c 5
 389 380 383 384 379 390 c 5
 380 388 381 387 382 385 c 132
 383 383 384 381 384 381 c 132
 384 381 386 381 387 380 c 132
 388 379 388 379 389 379 c 132
 390 379 392 379 395 378 c 5
 393 378 390 378 387 379 c 4
 379 380 367 379 352 380 c 4
 325 382 295 382 261 383 c 5
 262 364 263 345 263 323 c 4
 263 305 262 279 261 244 c 4
 261 243 261 244 261 242 c 4
 261 241 261 241 261 240 c 4
 260 199 260 168 260 148 c 4
 260 115 262 86 266 60 c 4
 268 50 265 42 260 34 c 132
 255 26 248 21 239 19 c 132
 230 17 222 20 215 26 c 132
 208 32 203 39 202 49 c 4
 198 77 195 111 195 147 c 4
 195 169 195 200 196 243 c 4
 196 244 196 244 196 246 c 4
 197 280 198 306 198 323 c 4
 198 345 197 365 196 383 c 5
 171 383 150 383 132 382 c 4
 116 381 103 381 94 380 c 4
 90 379 86 380 84 379 c 4
 77 375 70 375 62 378 c 132
 54 381 48 385 44 393 c 4
 40 401 38 410 40 420 c 132
 42 430 47 438 55 443 c 4
395 378 m 5
 395 378 l 5
 395 378 l 133
 395 378 l 5
EndSplineSet
EndChar

StartChar: J
Encoding: 74 74 10
Width: 480
Flags: HW
LayerCount: 2
Fore
SplineSet
88 484 m 0
 98 483 112 481 132 479 c 0
 168 475 195 472 212 471 c 0
 275 465 330 465 374 471 c 0
 385 472 395 469 404 463 c 128
 413 456 417 448 418 436 c 0
 419 429 419 421 415 414 c 1
 413 399 412 370 413 326 c 0
 413 298 413 275 412 260 c 0
 411 224 408 191 404 165 c 0
 398 129 389 101 375 78 c 0
 339 15 277 -8 191 12 c 0
 179 16 164 21 150 28 c 0
 142 32 131 41 119 50 c 0
 103 61 92 66 86 70 c 0
 76 74 71 82 67 93 c 128
 63 104 64 114 68 124 c 128
 72 134 81 140 92 144 c 128
 103 148 112 145 122 141 c 0
 131 137 144 128 164 116 c 0
 184 102 199 94 208 92 c 0
 236 86 258 86 275 92 c 0
 287 96 298 105 306 119 c 0
 322 147 330 193 332 261 c 0
 333 275 333 298 333 326 c 0
 333 342 333 343 333 364 c 128
 333 385 333 385 333 388 c 1
 297 386 254 387 205 391 c 0
 187 393 160 395 124 399 c 0
 96 403 94 402 80 404 c 0
 69 405 60 410 53 419 c 128
 46 428 42 437 44 448 c 128
 46 459 51 469 60 476 c 128
 69 483 77 485 88 484 c 0
EndSplineSet
EndChar

StartChar: K
Encoding: 75 75 11
Width: 480
Flags: HW
LayerCount: 2
Fore
SplineSet
156 450 m 0
 159 428 160 401 161 372 c 0
 161 346 161 347 161 296 c 1
 173 306 186 318 198 331 c 0
 212 345 231 364 255 392 c 0
 256 393 257 394 259 396 c 128
 261 398 262 399 264 401 c 128
 266 403 267 404 268 405 c 0
 291 432 310 453 324 468 c 0
 332 475 341 479 352 479 c 128
 363 479 372 476 380 468 c 128
 388 460 393 451 393 439 c 128
 393 427 388 419 380 412 c 0
 367 399 349 379 327 353 c 0
 326 352 326 350 324 348 c 128
 322 346 320 345 318 343 c 128
 316 341 316 341 316 340 c 0
 290 312 270 289 255 274 c 0
 246 265 246 265 238 257 c 1
 242 254 244 251 248 247 c 0
 250 245 248 247 252 243 c 128
 254 241 258 239 260 236 c 128
 262 233 264 231 267 228 c 128
 270 225 272 224 274 221 c 128
 276 218 278 217 280 215 c 128
 282 213 283 212 284 210 c 2
 285 208 l 2
 311 182 331 162 348 147 c 0
 370 127 392 108 412 96 c 0
 421 90 425 81 428 70 c 128
 431 59 429 49 423 40 c 128
 417 30 408 25 397 23 c 128
 386 21 376 23 367 29 c 0
 344 44 320 64 294 87 c 0
 276 103 254 125 228 153 c 2
 226 156 l 2
 222 160 222 160 218 164 c 128
 214 168 213 169 208 174 c 128
 204 178 201 180 198 184 c 128
 195 188 193 189 191 191 c 0
 181 201 181 201 173 209 c 1
 169 207 166 206 162 206 c 1
 163 190 163 190 164 174 c 0
 166 138 169 109 175 83 c 0
 176 79 177 74 177 70 c 0
 177 69 177 69 177 68 c 0
 183 57 184 47 180 36 c 128
 176 25 170 17 160 13 c 128
 150 9 140 8 130 12 c 0
 121 16 114 21 108 28 c 0
 104 33 101 38 99 45 c 0
 98 49 97 57 97 64 c 2
 97 65 l 1
 91 94 87 129 84 170 c 0
 82 197 81 232 81 276 c 0
 81 282 81 283 81 295 c 0
 82 362 80 411 76 442 c 0
 75 453 78 461 85 470 c 128
 92 479 101 483 112 484 c 128
 123 485 132 483 141 476 c 128
 150 469 155 461 156 450 c 0
EndSplineSet
EndChar

StartChar: L
Encoding: 76 76 12
Width: 480
Flags: HW
LayerCount: 2
Fore
SplineSet
159 426 m 0
 152 395 147 353 144 301 c 0
 142 278 141 243 140 194 c 0
 140 190 140 189 140 185 c 0
 139 179 138 165 136 144 c 0
 135 134 134 127 134 121 c 0
 133 109 132 99 132 91 c 1
 161 85 205 82 259 86 c 0
 269 87 282 88 301 90 c 0
 347 94 382 95 402 95 c 0
 414 95 422 92 430 84 c 128
 438 76 442 67 442 55 c 128
 442 43 438 35 430 27 c 128
 422 19 414 15 402 15 c 0
 384 15 352 15 308 11 c 0
 288 9 274 7 263 6 c 0
 229 4 200 3 176 4 c 0
 144 6 117 12 92 19 c 0
 88 20 84 21 80 23 c 0
 73 27 67 34 63 42 c 0
 57 54 54 66 53 84 c 0
 52 96 53 110 54 126 c 0
 55 133 56 142 57 152 c 0
 59 172 60 184 60 188 c 0
 60 192 60 191 60 196 c 0
 61 246 62 283 64 307 c 0
 68 363 73 408 82 444 c 0
 85 455 91 462 100 468 c 128
 109 474 119 477 130 474 c 128
 141 471 149 466 155 456 c 128
 161 447 162 437 159 426 c 0
EndSplineSet
EndChar

StartChar: M
Encoding: 77 77 13
Width: 480
Flags: HW
LayerCount: 2
Fore
SplineSet
428 429 m 4
 433 375 435 308 433 224 c 4
 433 210 433 189 432 161 c 4
 431 112 430 76 430 51 c 4
 430 40 427 30 419 22 c 132
 411 14 402 11 390 11 c 132
 378 11 370 14 362 22 c 132
 354 30 350 40 350 51 c 4
 350 76 351 113 352 163 c 4
 353 191 353 211 353 225 c 4
 354 270 354 308 353 340 c 5
 351 338 349 337 346 334 c 132
 343 331 342 330 340 328 c 132
 338 326 339 326 338 326 c 4
 337 325 337 325 336 324 c 4
 313 301 296 284 284 272 c 4
 275 265 267 258 262 254 c 4
 258 250 256 249 253 247 c 132
 250 245 247 244 244 243 c 4
 235 239 227 238 218 241 c 4
 209 243 201 248 192 256 c 4
 188 260 183 265 178 271 c 4
 176 273 174 275 172 278 c 4
 169 281 169 280 165 284 c 6
 164 289 l 6
 162 291 162 291 161 292 c 4
 158 296 157 297 156 298 c 4
 142 312 129 324 120 335 c 5
 120 333 120 335 120 331 c 4
 123 300 124 276 124 262 c 4
 124 238 122 202 118 156 c 4
 114 112 113 80 113 58 c 4
 113 47 109 37 101 29 c 132
 93 21 84 18 73 18 c 132
 62 18 52 21 44 29 c 132
 36 37 33 47 33 58 c 4
 33 82 35 118 39 164 c 4
 43 208 44 240 44 262 c 4
 44 274 43 296 41 324 c 4
 40 330 40 333 39 337 c 4
 35 380 35 412 39 437 c 4
 41 449 47 458 56 464 c 132
 65 470 73 473 85 471 c 4
 89 470 93 470 97 468 c 5
 106 470 114 468 122 464 c 132
 130 460 136 453 140 444 c 4
 146 431 157 416 171 399 c 4
 181 387 194 373 212 355 c 4
 215 352 218 347 222 342 c 4
 224 340 224 342 226 340 c 4
 227 338 227 336 228 336 c 4
 229 334 229 333 230 332 c 4
 242 343 258 359 279 380 c 4
 280 381 281 381 282 382 c 4
 282 383 286 387 292 393 c 132
 302 403 301 403 312 414 c 132
 323 425 323 424 327 428 c 4
 342 444 353 455 358 459 c 4
 365 465 373 467 382 468 c 132
 391 469 399 465 406 461 c 4
 418 454 426 443 428 429 c 4
EndSplineSet
EndChar

StartChar: N
Encoding: 78 78 14
Width: 480
Flags: HW
LayerCount: 2
Fore
SplineSet
64 66 m 0
 61 135 60 191 61 233 c 0
 61 296 65 353 71 403 c 0
 72 409 72 415 74 419 c 0
 78 427 82 433 88 438 c 0
 97 445 106 449 116 450 c 0
 123 450 131 448 138 444 c 0
 150 439 163 428 177 410 c 0
 195 387 220 349 250 297 c 0
 254 288 260 279 265 270 c 0
 274 255 284 238 295 218 c 0
 299 211 304 202 309 193 c 0
 309 192 311 189 315 182 c 128
 319 175 320 172 321 170 c 0
 327 159 332 149 336 142 c 1
 337 146 337 152 337 156 c 0
 338 168 338 186 337 207 c 0
 336 219 336 226 336 230 c 0
 336 234 336 242 337 251 c 0
 337 279 337 298 336 312 c 0
 335 349 334 381 330 408 c 0
 328 419 331 428 338 437 c 128
 345 446 353 450 364 452 c 128
 375 454 385 452 394 445 c 128
 403 439 407 431 409 420 c 0
 413 390 415 355 416 314 c 0
 417 300 417 279 417 251 c 0
 416 242 416 234 416 230 c 0
 416 227 416 221 417 209 c 0
 418 186 418 168 417 154 c 0
 416 134 415 118 413 104 c 0
 410 84 406 70 400 58 c 0
 394 47 386 39 376 34 c 0
 364 27 350 24 336 28 c 0
 319 33 303 48 286 70 c 0
 282 76 271 98 252 132 c 0
 251 134 248 137 244 143 c 128
 240 149 240 153 239 154 c 0
 234 164 229 172 225 179 c 0
 213 199 205 215 196 230 c 0
 192 239 185 248 181 257 c 0
 167 281 155 301 144 318 c 1
 142 291 141 263 141 232 c 0
 140 191 141 136 144 68 c 0
 144 56 140 47 133 39 c 128
 126 31 117 27 106 27 c 128
 95 27 84 30 76 37 c 128
 68 44 64 54 64 66 c 0
EndSplineSet
EndChar

StartChar: O
Encoding: 79 79 15
Width: 480
Flags: HW
LayerCount: 2
Fore
SplineSet
223 90 m 1
 235 96 247 96 259 90 c 0
 268 86 276 84 283 86 c 0
 291 88 299 95 308 105 c 0
 330 130 344 166 352 212 c 0
 361 260 358 299 345 333 c 0
 333 363 315 379 288 381 c 0
 234 385 192 375 162 347 c 0
 136 324 122 291 120 252 c 0
 119 212 131 176 155 143 c 0
 173 119 195 102 223 90 c 1
248 0 m 0
 182 12 129 43 91 95 c 0
 55 142 38 195 40 255 c 0
 43 316 66 366 108 405 c 0
 155 448 217 466 293 461 c 0
 323 459 350 450 371 432 c 128
 392 414 408 392 420 363 c 0
 439 316 443 259 432 197 c 0
 421 136 399 88 368 52 c 0
 348 30 327 16 304 10 c 0
 294 7 286 5 276 5 c 1
 267 0 258 -2 248 0 c 0
EndSplineSet
EndChar

StartChar: P
Encoding: 80 80 16
Width: 480
Flags: HW
LayerCount: 2
Fore
SplineSet
197 244 m 0
 198 243 199 243 200 243 c 0
 217 242 229 241 237 241 c 0
 260 241 281 245 299 252 c 0
 326 263 338 280 335 306 c 0
 334 318 329 329 320 340 c 128
 311 351 301 359 288 364 c 0
 272 370 253 375 231 377 c 0
 219 378 201 379 181 379 c 1
 182 370 183 359 186 346 c 0
 186 343 187 339 188 335 c 0
 192 307 195 287 196 273 c 0
 197 263 196 254 197 244 c 0
104 460 m 0
 117 459 136 458 161 459 c 2
 164 459 l 2
 196 459 220 458 237 456 c 0
 266 454 293 448 316 439 c 0
 344 429 366 413 384 390 c 128
 402 367 412 342 415 314 c 0
 419 285 411 257 396 232 c 128
 381 207 358 189 329 177 c 0
 301 165 270 160 236 161 c 0
 227 161 214 162 197 163 c 1
 197 159 197 157 197 153 c 0
 197 146 197 133 196 118 c 0
 195 84 196 60 196 43 c 0
 196 32 192 22 184 14 c 128
 176 6 167 3 156 3 c 128
 145 3 136 6 128 14 c 128
 120 22 116 32 116 43 c 0
 116 60 115 85 116 119 c 0
 117 134 117 147 117 155 c 0
 117 172 117 172 117 186 c 1
 113 192 112 197 112 204 c 0
 112 210 113 217 117 223 c 1
 117 240 117 255 116 269 c 0
 115 279 112 297 108 322 c 0
 107 326 108 329 107 332 c 0
 103 350 102 364 101 376 c 0
 100 377 100 379 100 380 c 1
 99 380 100 380 99 380 c 0
 87 381 78 385 71 393 c 128
 64 401 60 411 61 422 c 128
 62 433 68 442 76 449 c 128
 84 456 93 461 104 460 c 0
EndSplineSet
EndChar

StartChar: R
Encoding: 82 82 17
Width: 480
Flags: HW
LayerCount: 2
Fore
SplineSet
260 196 m 5
 270 190 276 187 278 186 c 4
 310 166 335 147 353 133 c 4
 381 111 402 90 416 68 c 4
 422 59 423 49 421 38 c 132
 419 27 413 18 404 12 c 132
 395 6 386 4 375 7 c 132
 364 10 355 15 349 24 c 4
 339 39 323 54 303 71 c 4
 287 83 264 98 236 117 c 4
 234 119 229 123 219 129 c 132
 209 135 204 139 202 140 c 4
 189 149 178 155 169 161 c 4
 167 163 166 163 164 164 c 5
 168 109 168 67 168 34 c 4
 168 22 164 13 156 5 c 132
 148 -3 140 -6 128 -6 c 132
 116 -6 108 -3 100 5 c 132
 92 13 88 22 88 34 c 4
 88 67 86 117 82 185 c 4
 79 229 77 262 76 284 c 4
 74 320 75 352 76 380 c 5
 68 380 59 384 52 388 c 132
 45 392 41 399 38 407 c 4
 34 417 36 427 40 437 c 132
 44 447 52 455 62 459 c 4
 74 463 88 466 103 468 c 4
 109 471 117 472 123 471 c 4
 124 471 124 471 125 470 c 4
 148 472 172 472 196 468 c 4
 226 464 266 453 313 436 c 4
 339 427 360 414 375 396 c 132
 390 378 399 358 401 338 c 132
 403 318 399 296 388 276 c 132
 377 256 359 237 336 222 c 4
 316 210 290 200 260 196 c 5
173 277 m 4
 193 273 214 272 238 275 c 132
 262 278 280 283 293 291 c 4
 305 298 312 305 316 313 c 4
 320 319 322 324 321 329 c 132
 320 334 318 340 314 344 c 4
 308 351 299 356 287 360 c 4
 243 375 210 384 184 388 c 4
 175 389 166 390 156 391 c 5
 154 361 154 326 156 287 c 5
 160 286 161 285 165 283 c 4
 167 282 169 280 172 278 c 4
 173 277 172 277 173 277 c 4
EndSplineSet
EndChar

StartChar: S
Encoding: 83 83 18
Width: 480
Flags: HW
LayerCount: 2
Fore
SplineSet
360 394 m 4
 305 398 260 393 224 381 c 4
 212 377 202 373 196 368 c 132
 189 363 182 356 178 346 c 4
 177 343 177 341 176 339 c 6
 176 338 l 6
 176 337 176 336 177 335 c 4
 183 328 199 320 225 308 c 4
 226 308 232 305 243 301 c 132
 254 297 259 293 263 292 c 4
 281 284 296 277 308 270 c 4
 326 260 340 250 352 238 c 4
 385 207 400 170 397 126 c 4
 395 103 387 81 370 59 c 4
 357 41 341 25 321 13 c 4
 291 -5 253 -10 207 -3 c 4
 176 1 143 13 109 27 c 4
 99 31 92 39 88 49 c 132
 84 59 84 69 88 79 c 132
 92 89 99 96 110 100 c 132
 121 104 131 104 141 100 c 4
 170 88 197 80 222 76 c 132
 247 72 267 76 280 83 c 4
 290 89 299 97 306 106 c 132
 313 115 316 125 317 132 c 4
 318 151 312 167 300 179 c 132
 288 191 264 206 231 220 c 4
 228 221 223 224 212 228 c 132
 201 232 195 235 193 236 c 4
 177 243 165 248 155 253 c 4
 140 262 128 271 119 280 c 4
 92 308 88 342 106 380 c 4
 124 418 156 445 200 459 c 132
 244 473 299 478 364 474 c 4
 376 473 385 468 392 460 c 132
 399 452 403 442 402 431 c 132
 401 420 396 411 388 404 c 132
 380 397 372 393 360 394 c 4
EndSplineSet
EndChar

StartChar: T
Encoding: 84 84 19
Width: 480
Flags: HW
LayerCount: 2
Fore
SplineSet
60 469 m 4
 64 473 69 474 77 476 c 4
 81 477 87 479 93 480 c 4
 104 481 117 482 134 483 c 4
 164 484 203 485 248 484 c 4
 288 483 325 482 358 480 c 4
 373 479 386 479 395 478 c 4
 400 477 403 477 406 476 c 4
 415 475 421 475 423 473 c 132
 425 471 429 467 433 460 c 4
 438 451 440 443 439 432 c 132
 438 421 435 411 428 404 c 4
 419 395 410 393 399 397 c 4
 398 397 398 397 398 397 c 5
 392 399 386 405 382 412 c 5
 383 410 385 406 386 404 c 132
 387 402 388 401 388 401 c 132
 388 401 388 401 389 400 c 132
 390 399 392 398 393 398 c 132
 394 398 395 398 398 397 c 5
 396 397 393 397 390 398 c 4
 382 399 371 399 356 400 c 4
 329 402 298 403 265 404 c 5
 266 384 267 361 267 336 c 4
 267 316 266 287 265 249 c 4
 265 248 265 248 265 246 c 4
 265 245 265 245 265 244 c 4
 264 199 263 165 263 142 c 4
 263 106 265 73 269 45 c 4
 271 34 269 25 264 16 c 132
 259 7 252 2 243 0 c 132
 234 -2 226 0 219 7 c 132
 212 13 206 22 205 33 c 4
 201 65 198 100 198 140 c 4
 198 165 199 201 200 248 c 4
 200 249 200 249 200 252 c 4
 201 290 202 317 202 336 c 4
 202 361 202 384 201 404 c 5
 176 404 154 404 136 403 c 4
 120 402 108 401 99 400 c 4
 95 399 91 399 89 398 c 4
 82 394 75 394 67 397 c 132
 59 400 52 405 48 414 c 4
 44 423 42 433 44 444 c 132
 46 455 52 463 60 469 c 4
398 397 m 5
 398 397 l 5
 398 397 l 133
 398 397 l 5
EndSplineSet
EndChar

StartChar: U
Encoding: 85 85 20
Width: 480
Flags: HW
LayerCount: 2
Fore
SplineSet
144 420 m 4
 131 297 136 209 159 152 c 4
 166 133 174 121 184 115 c 4
 190 111 198 110 206 112 c 4
 218 116 233 125 247 141 c 132
 261 157 275 177 287 202 c 4
 303 233 315 267 322 305 c 5
 326 339 327 362 328 375 c 4
 329 397 330 416 328 428 c 4
 326 440 329 448 335 457 c 132
 342 466 351 470 362 472 c 132
 373 474 382 470 391 464 c 132
 400 457 405 449 407 438 c 4
 407 437 407 437 408 436 c 4
 412 430 413 422 413 414 c 4
 413 372 409 332 401 293 c 4
 400 278 399 266 398 257 c 4
 394 212 393 176 397 151 c 4
 400 123 406 103 418 92 c 4
 425 85 429 76 429 64 c 132
 429 52 426 44 418 36 c 132
 410 28 401 24 389 24 c 132
 377 24 368 28 361 36 c 4
 343 54 330 78 323 108 c 5
 294 69 262 46 228 36 c 4
 197 27 168 30 142 46 c 4
 117 61 98 87 84 123 c 4
 56 191 50 293 65 429 c 4
 66 441 71 450 80 457 c 132
 89 464 97 467 108 465 c 132
 119 463 129 460 136 451 c 132
 143 442 145 432 144 420 c 4
EndSplineSet
EndChar

StartChar: V
Encoding: 86 86 21
Width: 480
Flags: HW
LayerCount: 2
Fore
SplineSet
105 398 m 4
 104 390 108 377 117 358 c 4
 121 351 126 343 132 332 c 4
 133 330 134 329 136 326 c 6
 138 323 l 6
 139 321 139 322 140 320 c 4
 144 315 146 311 148 307 c 4
 153 297 157 288 160 281 c 4
 161 279 165 273 169 262 c 132
 173 251 178 240 182 228 c 132
 186 216 192 206 196 195 c 132
 200 184 203 180 204 179 c 4
 205 178 204 177 205 175 c 4
 210 161 216 148 220 137 c 5
 227 149 236 165 246 185 c 4
 250 193 256 204 263 216 c 6
 270 232 l 6
 274 239 277 244 279 248 c 4
 280 249 280 250 281 251 c 4
 331 347 361 403 372 419 c 4
 377 428 386 433 396 435 c 132
 406 437 414 434 422 429 c 132
 430 424 435 416 437 406 c 132
 439 396 437 388 432 380 c 4
 422 366 393 311 344 218 c 4
 343 217 343 216 343 215 c 6
 326 183 l 6
 320 170 314 159 310 151 c 4
 298 128 289 109 281 95 c 4
 271 77 264 64 259 55 c 4
 256 50 254 46 252 42 c 4
 250 39 248 38 246 36 c 4
 242 32 240 28 236 26 c 132
 232 24 227 22 220 21 c 4
 212 20 205 22 201 24 c 132
 197 26 192 30 188 36 c 4
 186 38 185 41 184 43 c 132
 183 45 182 47 180 51 c 4
 177 56 173 65 169 76 c 4
 162 93 151 117 138 148 c 4
 137 150 137 148 136 150 c 4
 136 151 134 156 130 167 c 132
 126 178 120 188 116 200 c 132
 112 212 106 222 102 233 c 132
 98 244 94 250 93 252 c 4
 91 256 88 263 84 271 c 4
 82 274 80 279 77 283 c 4
 76 285 77 284 76 286 c 4
 75 288 75 289 74 290 c 4
 72 293 71 294 70 296 c 4
 63 308 57 317 53 325 c 4
 46 338 41 352 38 364 c 4
 34 380 32 394 34 407 c 4
 35 417 39 425 47 431 c 132
 55 437 64 440 74 439 c 132
 84 438 92 433 98 425 c 132
 104 417 106 408 105 398 c 4
EndSplineSet
EndChar

StartChar: W
Encoding: 87 87 22
Width: 480
Flags: HW
LayerCount: 2
Fore
SplineSet
111 404 m 4
 113 373 119 318 131 239 c 4
 135 205 141 177 145 154 c 5
 157 175 168 203 181 235 c 4
 181 236 181 235 181 236 c 6
 182 237 l 6
 183 240 184 241 185 243 c 4
 186 247 186 249 188 252 c 4
 190 256 192 257 194 260 c 4
 197 263 199 266 202 268 c 4
 208 272 215 275 223 275 c 4
 228 275 234 274 239 271 c 4
 243 269 246 268 249 265 c 4
 252 262 255 259 258 255 c 4
 261 251 263 247 266 243 c 4
 268 240 268 237 270 234 c 4
 271 233 271 232 272 230 c 6
 272 229 l 5
 273 229 l 6
 274 228 274 227 275 224 c 4
 275 223 275 223 276 222 c 6
 277 218 l 6
 279 214 281 210 283 206 c 132
 285 202 286 199 288 195 c 132
 290 191 291 187 292 185 c 4
 299 170 305 157 311 146 c 5
 315 164 320 192 325 229 c 4
 326 231 326 235 327 239 c 132
 328 243 328 248 329 252 c 132
 330 256 330 258 330 259 c 4
 337 302 342 335 346 356 c 4
 353 392 361 417 369 433 c 4
 373 442 379 447 389 451 c 132
 399 455 408 453 417 449 c 132
 426 445 432 438 436 428 c 132
 440 418 438 409 434 400 c 4
 429 389 422 369 417 341 c 4
 413 321 407 290 401 248 c 4
 401 247 401 245 400 241 c 132
 399 237 399 232 398 228 c 132
 397 224 397 220 396 218 c 4
 390 174 384 142 380 122 c 4
 376 107 374 94 370 84 c 4
 365 69 358 59 351 52 c 4
 344 45 336 42 327 41 c 4
 323 40 317 41 312 43 c 4
 308 45 304 46 300 49 c 4
 298 51 298 50 296 52 c 4
 294 54 294 54 292 56 c 4
 291 56 292 55 291 56 c 4
 278 69 264 85 252 104 c 4
 244 117 236 136 227 156 c 5
 226 156 l 5
 211 123 194 94 177 69 c 5
 177 68 l 5
 177 68 l 6
 175 66 174 65 173 63 c 4
 171 60 169 58 166 56 c 4
 162 52 158 48 154 45 c 4
 146 41 137 40 128 42 c 132
 119 44 111 47 104 54 c 132
 97 61 91 72 86 87 c 4
 83 97 81 110 77 125 c 4
 72 152 65 186 59 228 c 4
 47 310 40 368 38 401 c 4
 37 411 41 420 48 427 c 132
 55 434 64 437 74 438 c 132
 84 439 93 436 100 429 c 132
 107 422 110 414 111 404 c 4
EndSplineSet
EndChar

StartChar: X
Encoding: 88 88 23
Width: 480
Flags: HW
LayerCount: 2
Fore
SplineSet
115 439 m 4
 125 424 145 403 173 375 c 6
 174 374 l 6
 175 373 176 373 176 372 c 4
 197 352 213 336 223 324 c 4
 230 315 237 308 244 300 c 5
 283 346 322 391 358 436 c 4
 365 445 374 450 385 452 c 132
 396 454 405 451 414 444 c 132
 423 437 426 427 428 416 c 132
 430 405 427 397 420 388 c 4
 380 338 339 287 295 236 c 5
 300 229 l 6
 326 197 346 173 360 156 c 4
 382 130 401 110 420 91 c 4
 427 83 432 73 432 62 c 132
 432 51 428 42 420 34 c 132
 412 26 403 21 392 21 c 132
 381 21 372 26 364 34 c 4
 344 54 321 78 298 106 c 4
 284 123 265 145 241 175 c 5
 198 127 156 81 112 35 c 4
 104 27 95 22 84 22 c 132
 73 22 64 25 56 33 c 132
 48 41 44 50 44 61 c 132
 44 72 47 82 54 90 c 4
 100 139 147 187 191 238 c 5
 181 250 172 262 162 273 c 4
 153 283 140 297 120 316 c 4
 118 317 118 316 118 317 c 4
 103 332 91 344 83 353 c 4
 69 367 58 382 49 395 c 4
 43 404 41 413 43 424 c 132
 45 435 51 444 60 450 c 132
 69 456 78 458 89 456 c 132
 100 454 109 448 115 439 c 4
EndSplineSet
EndChar

StartChar: Y
Encoding: 89 89 24
Width: 480
Flags: HW
LayerCount: 2
Fore
SplineSet
41 66 m 4
 48 74 68 97 101 136 c 4
 105 140 112 148 122 160 c 132
 132 172 143 186 157 203 c 132
 171 220 181 231 187 238 c 5
 183 245 177 253 171 260 c 4
 162 270 150 283 133 301 c 6
 131 304 l 6
 109 327 93 346 83 358 c 4
 65 380 51 403 40 423 c 4
 35 433 32 442 36 453 c 132
 40 464 46 472 56 477 c 132
 66 482 76 484 87 480 c 132
 98 476 106 470 111 460 c 4
 119 444 130 427 145 409 c 4
 154 397 169 380 189 358 c 6
 190 357 l 5
 192 356 l 6
 210 336 223 322 232 311 c 4
 236 307 236 305 240 301 c 5
 273 339 298 371 318 394 c 4
 335 414 348 428 357 438 c 4
 362 444 366 448 370 452 c 4
 374 456 373 455 376 458 c 4
 383 464 391 467 400 468 c 4
 411 469 419 467 428 460 c 132
 437 453 443 444 444 433 c 132
 445 422 442 413 435 404 c 132
 428 395 419 390 408 388 c 5
 416 389 423 392 427 396 c 5
 425 394 420 390 416 385 c 4
 407 375 396 361 379 341 c 4
 353 311 316 268 266 208 c 4
 265 207 265 206 264 205 c 4
 259 199 241 179 213 145 c 132
 185 111 168 90 163 84 c 4
 129 44 108 21 101 12 c 4
 94 4 85 0 73 -1 c 132
 61 -2 52 2 44 9 c 132
 36 16 32 25 31 36 c 132
 30 47 34 57 41 66 c 4
EndSplineSet
EndChar

StartChar: Z
Encoding: 90 90 25
Width: 480
Flags: HW
LayerCount: 2
Fore
SplineSet
55 476 m 0
 83 482 120 482 164 478 c 0
 171 477 182 477 196 475 c 0
 222 471 241 469 253 468 c 0
 255 468 265 467 285 468 c 0
 299 469 311 469 321 469 c 0
 343 470 361 470 374 468 c 0
 384 466 393 464 400 462 c 0
 405 460 410 458 414 455 c 0
 421 451 426 445 430 439 c 0
 438 426 439 411 434 396 c 0
 431 389 427 383 421 376 c 0
 416 371 415 371 408 364 c 0
 405 362 403 360 399 356 c 0
 397 354 396 353 396 352 c 0
 382 339 366 323 346 304 c 0
 342 300 333 291 319 278 c 128
 305 265 298 257 296 255 c 0
 255 216 223 184 199 159 c 0
 179 137 160 117 144 97 c 1
 148 98 154 98 160 98 c 0
 162 99 165 99 171 100 c 2
 179 100 l 2
 186 101 190 100 194 100 c 0
 230 100 229 100 300 100 c 0
 305 100 306 100 308 100 c 0
 352 99 385 100 408 100 c 0
 419 100 428 96 436 88 c 128
 444 80 448 72 448 60 c 128
 448 48 444 39 436 31 c 128
 428 23 419 20 408 20 c 0
 384 20 351 19 308 20 c 0
 305 20 304 20 300 20 c 0
 229 20 230 20 194 20 c 0
 193 20 189 21 184 20 c 2
 180 20 l 2
 177 20 176 19 172 19 c 128
 168 19 166 19 165 19 c 0
 153 18 142 17 133 16 c 0
 114 15 99 16 87 17 c 0
 78 18 70 19 64 21 c 0
 60 23 54 25 50 28 c 0
 43 32 37 38 33 45 c 0
 29 54 27 65 30 76 c 0
 31 78 31 80 32 83 c 0
 34 86 34 84 36 87 c 0
 37 89 37 90 39 92 c 0
 40 94 41 96 44 100 c 0
 46 102 47 103 49 106 c 0
 50 106 50 106 50 107 c 2
 51 108 l 1
 76 142 104 176 140 213 c 0
 165 240 199 274 240 313 c 0
 242 315 250 323 264 336 c 128
 278 349 286 358 290 362 c 0
 302 373 311 381 320 389 c 1
 312 389 300 389 288 388 c 0
 266 387 252 388 248 388 c 0
 234 389 213 392 185 396 c 0
 172 398 162 398 155 399 c 0
 119 403 92 402 72 398 c 0
 61 395 51 398 42 404 c 128
 32 410 27 417 24 428 c 128
 21 439 23 449 29 459 c 128
 35 468 44 473 55 476 c 0
EndSplineSet
EndChar

StartChar: greater
Encoding: 62 62 26
Width: 480
Flags: HW
LayerCount: 2
Fore
SplineSet
93 437 m 4
 112 425 132 415 157 404 c 4
 175 397 199 390 229 378 c 4
 232 377 235 375 239 374 c 4
 240 373 241 373 244 372 c 132
 247 371 247 371 248 371 c 4
 284 359 310 348 329 340 c 4
 330 339 335 337 344 334 c 4
 345 333 349 333 357 329 c 132
 365 325 370 323 372 322 c 6
 373 322 l 5
 386 317 398 313 404 310 c 4
 408 308 411 307 414 306 c 4
 416 305 417 306 418 305 c 132
 419 304 419 304 420 304 c 4
 421 303 421 303 422 302 c 132
 423 301 425 302 427 300 c 4
 428 299 428 298 429 297 c 132
 431 295 431 295 434 292 c 4
 436 289 435 291 437 288 c 4
 438 285 439 282 440 279 c 4
 441 275 442 271 442 266 c 4
 441 261 439 255 436 250 c 4
 426 234 406 215 371 195 c 4
 349 182 317 164 275 143 c 4
 267 139 267 139 258 135 c 4
 256 134 251 132 243 128 c 132
 235 124 230 122 228 121 c 4
 216 116 208 111 200 107 c 4
 180 96 162 87 150 80 c 4
 135 72 124 65 116 60 c 4
 112 57 110 55 108 53 c 4
 103 44 97 39 88 36 c 132
 79 33 70 33 61 37 c 4
 51 41 45 48 41 58 c 132
 37 68 37 77 41 87 c 4
 44 94 49 102 56 108 c 4
 60 112 66 118 72 122 c 4
 83 129 97 138 114 148 c 4
 127 156 145 163 166 174 c 4
 174 178 183 183 195 189 c 4
 197 190 201 192 209 196 c 132
 217 200 222 203 224 204 c 4
 233 208 232 208 240 212 c 4
 279 232 309 246 329 258 c 5
 322 261 318 262 316 263 c 4
 307 267 302 268 300 269 c 4
 283 276 257 288 222 300 c 4
 221 301 220 300 217 301 c 132
 214 302 213 302 212 302 c 4
 208 304 206 305 203 306 c 4
 172 318 147 327 128 335 c 4
 100 347 74 360 53 372 c 4
 44 377 39 385 36 395 c 132
 33 405 36 415 41 424 c 132
 46 433 54 439 64 442 c 132
 74 445 84 442 93 437 c 4
EndSplineSet
EndChar

StartChar: p
Encoding: 112 112 27
Width: 480
Flags: HW
LayerCount: 2
Fore
SplineSet
306 418 m 5
 266 416 234 410 211 401 c 4
 194 394 180 385 172 374 c 132
 164 363 160 349 159 332 c 4
 158 321 159 315 160 311 c 4
 161 309 161 309 164 307 c 4
 179 298 194 292 209 290 c 4
 219 289 235 289 255 291 c 4
 261 292 265 292 268 292 c 4
 285 293 298 293 310 292 c 5
 309 300 309 310 308 325 c 4
 306 369 306 400 306 418 c 5
386 445 m 4
 386 421 386 383 388 329 c 4
 389 305 390 286 391 273 c 4
 393 178 390 104 381 52 c 4
 379 41 374 32 365 26 c 132
 356 20 346 17 335 19 c 132
 324 21 315 26 309 35 c 132
 303 44 300 53 302 65 c 4
 308 103 312 151 312 211 c 5
 302 213 289 214 273 212 c 4
 271 212 267 212 261 211 c 4
 249 210 239 209 233 209 c 4
 221 208 210 209 200 211 c 4
 172 215 147 223 122 239 c 4
 102 251 90 268 84 288 c 4
 80 300 78 316 79 336 c 4
 81 372 92 402 112 427 c 4
 129 447 152 464 182 476 c 4
 204 485 231 490 262 494 c 4
 284 496 310 498 340 498 c 4
 349 498 357 494 364 489 c 132
 371 484 377 477 379 468 c 5
 383 462 386 454 386 445 c 4
EndSplineSet
EndChar

StartChar: l
Encoding: 108 108 28
Width: 480
Flags: HW
LayerCount: 2
Fore
SplineSet
409 456 m 0
 409 447 410 405 412 329 c 0
 413 303 412 280 412 262 c 0
 413 203 413 158 412 126 c 0
 411 106 411 89 410 77 c 0
 409 70 408 64 407 59 c 0
 406 55 405 52 404 48 c 0
 401 42 398 36 394 32 c 0
 388 26 381 23 371 20 c 0
 367 19 362 18 356 17 c 0
 348 16 337 15 324 14 c 0
 302 13 272 14 236 15 c 0
 168 17 119 19 86 23 c 0
 75 24 67 29 60 38 c 128
 53 47 50 57 51 68 c 128
 52 79 56 87 65 94 c 128
 74 101 83 104 94 103 c 0
 125 99 174 97 239 95 c 0
 273 94 302 93 322 94 c 0
 326 95 328 95 332 95 c 1
 333 104 332 116 332 129 c 0
 333 160 333 203 332 260 c 0
 332 278 333 301 332 327 c 0
 330 404 329 449 330 460 c 0
 330 471 334 479 342 486 c 128
 350 493 360 497 371 497 c 128
 382 497 391 492 398 484 c 128
 405 476 410 467 409 456 c 0
EndSplineSet
EndChar

StartChar: asciicircum
Encoding: 94 94 29
Width: 480
Flags: HW
LayerCount: 2
Fore
SplineSet
27 68 m 4
 32 88 40 110 52 132 c 4
 59 145 71 164 86 187 c 4
 87 189 87 188 88 189 c 4
 89 191 89 191 90 193 c 4
 92 196 93 197 95 199 c 4
 106 216 114 230 120 241 c 4
 131 261 143 290 156 327 c 4
 157 330 158 334 161 341 c 4
 175 380 187 413 199 435 c 4
 199 436 199 435 199 436 c 4
 200 437 200 437 200 438 c 4
 201 441 202 443 203 445 c 4
 208 455 216 464 226 468 c 4
 236 472 246 472 257 468 c 4
 262 466 268 464 272 460 c 4
 276 456 282 450 286 444 c 4
 289 440 291 435 294 431 c 4
 297 427 299 422 302 417 c 4
 303 415 302 416 304 412 c 4
 305 411 305 412 305 412 c 5
 305 411 l 5
 316 392 326 368 336 340 c 4
 342 322 350 294 360 260 c 4
 360 259 360 259 361 256 c 132
 362 253 363 250 364 246 c 132
 365 242 365 240 365 238 c 4
 378 191 390 156 400 133 c 4
 412 101 426 78 440 64 c 4
 448 57 452 48 452 36 c 132
 452 24 448 16 440 8 c 132
 432 0 424 -4 412 -4 c 132
 400 -4 391 0 384 8 c 4
 362 30 342 62 325 104 c 4
 315 130 302 167 288 217 c 4
 287 218 288 219 287 222 c 132
 286 225 285 226 284 229 c 132
 283 233 284 233 283 236 c 6
 282 238 l 6
 273 271 266 297 260 314 c 4
 256 326 252 336 248 346 c 5
 244 338 240 327 236 315 c 4
 233 308 232 303 231 300 c 4
 216 259 202 227 190 204 c 4
 184 192 174 176 162 156 c 4
 159 152 160 153 157 149 c 4
 156 147 157 149 156 147 c 6
 154 145 l 6
 153 144 153 143 153 142 c 4
 139 121 129 105 123 93 c 4
 114 76 108 62 104 48 c 4
 101 36 96 28 86 23 c 132
 76 18 67 16 56 19 c 132
 45 22 36 26 31 36 c 132
 26 46 24 57 27 68 c 4
EndSplineSet
EndChar

StartChar: k
Encoding: 107 107 30
Width: 480
Flags: HW
LayerCount: 2
Fore
SplineSet
388 443 m 0
 386 418 386 389 388 356 c 0
 389 336 392 305 396 264 c 0
 397 255 398 248 399 244 c 0
 403 200 405 164 406 136 c 0
 407 95 405 60 400 27 c 0
 398 15 393 6 384 0 c 128
 375 -6 365 -9 354 -7 c 128
 343 -5 334 1 328 10 c 128
 322 19 319 28 321 39 c 0
 325 67 327 97 326 133 c 0
 325 148 325 166 324 184 c 1
 322 183 321 181 320 180 c 0
 298 160 275 139 249 116 c 0
 220 89 197 67 179 50 c 0
 169 41 161 33 156 28 c 1
 158 30 158 31 158 32 c 128
 158 33 158 34 158 36 c 128
 158 38 157 40 158 44 c 1
 156 32 152 23 143 16 c 128
 134 9 125 6 114 8 c 128
 103 10 94 13 87 22 c 128
 80 31 77 40 78 52 c 0
 79 54 79 57 79 60 c 128
 79 63 79 63 80 65 c 128
 81 67 85 70 90 76 c 0
 91 77 91 76 92 77 c 0
 94 79 96 81 100 85 c 0
 106 90 114 98 124 108 c 0
 142 125 166 146 195 174 c 0
 218 195 240 216 260 236 c 1
 240 254 219 272 197 293 c 0
 172 317 139 351 97 393 c 0
 89 401 84 410 84 421 c 128
 84 432 88 442 96 450 c 128
 104 458 112 461 124 461 c 128
 136 461 146 458 154 450 c 0
 196 408 227 375 252 352 c 0
 273 332 294 312 314 295 c 1
 312 315 309 334 308 351 c 0
 306 387 306 421 308 449 c 0
 309 460 315 469 323 476 c 128
 331 483 340 486 352 485 c 128
 364 484 373 480 380 471 c 128
 387 462 389 454 388 443 c 0
EndSplineSet
EndChar

StartChar: one
Encoding: 49 49 31
Width: 480
Flags: HW
LayerCount: 2
Fore
SplineSet
201 35 m 5
 150 47 110 71 79 107 c 4
 42 150 27 199 31 255 c 4
 35 312 61 360 106 396 c 4
 155 435 219 455 297 452 c 4
 325 451 350 443 371 430 c 132
 392 417 409 399 422 376 c 4
 444 334 452 286 443 231 c 132
 434 176 413 129 377 92 c 4
 335 48 285 26 225 26 c 4
 216 26 208 29 201 35 c 5
108 276 m 5
 117 273 133 271 156 270 c 4
 175 269 201 270 237 272 c 4
 241 272 245 271 252 272 c 4
 296 274 327 276 344 275 c 4
 356 274 365 273 373 272 c 5
 373 299 368 322 358 341 c 4
 345 366 323 379 295 380 c 4
 235 382 187 368 151 340 c 4
 130 323 116 302 108 276 c 5
EndSplineSet
EndChar

StartChar: two
Encoding: 50 50 32
Width: 480
Flags: HW
LayerCount: 2
Fore
SplineSet
106 203 m 5
 110 183 120 163 132 148 c 4
 153 120 183 106 222 102 c 5
 229 106 237 108 245 106 c 4
 276 101 304 108 328 132 c 4
 349 153 364 183 372 219 c 5
 345 219 302 216 244 211 c 4
 183 206 137 203 106 203 c 5
238 29 m 4
 168 29 115 54 76 103 c 4
 40 147 26 199 31 259 c 4
 34 288 41 315 54 341 c 132
 67 367 86 388 107 406 c 4
 157 449 221 465 297 455 c 4
 356 447 397 418 424 366 c 4
 446 322 453 273 444 217 c 4
 435 162 414 117 380 82 c 4
 344 46 301 28 252 32 c 5
 248 30 242 29 238 29 c 4
EndSplineSet
EndChar

StartChar: d
Encoding: 100 100 33
Width: 480
Flags: HW
LayerCount: 2
Fore
SplineSet
320 427 m 5
 279 432 244 422 211 399 c 4
 193 387 178 371 166 351 c 132
 154 331 147 311 143 289 c 4
 136 243 149 203 180 172 c 4
 212 139 261 120 327 114 c 5
 331 154 331 205 328 265 c 4
 327 278 326 298 324 324 c 4
 321 371 321 406 320 427 c 5
354 502 m 4
 357 502 355 502 359 502 c 4
 371 502 380 499 388 491 c 132
 396 483 399 474 399 462 c 5
 400 460 l 5
 400 459 l 6
 400 431 400 389 404 329 c 4
 406 302 407 282 408 268 c 4
 412 197 409 138 405 92 c 5
 409 86 412 79 412 72 c 4
 412 60 406 51 397 43 c 5
 393 34 388 25 380 21 c 132
 372 17 364 15 354 17 c 4
 342 19 333 24 327 34 c 5
 238 41 171 69 124 116 c 4
 99 141 81 168 71 200 c 132
 61 232 59 265 64 300 c 4
 69 333 81 364 98 392 c 132
 116 420 138 444 164 464 c 4
 221 505 284 517 354 502 c 4
EndSplineSet
EndChar

StartChar: plus
Encoding: 43 43 34
Width: 480
Flags: HW
LayerCount: 2
Fore
SplineSet
81 287 m 4
 101 284 123 283 148 284 c 4
 163 285 182 285 204 287 c 5
 205 344 204 393 200 436 c 4
 198 447 201 457 208 466 c 132
 215 475 223 478 235 480 c 132
 247 482 255 479 264 472 c 132
 273 465 278 456 279 444 c 4
 283 400 285 349 284 292 c 5
 302 293 302 293 320 294 c 4
 354 295 384 292 412 288 c 4
 423 286 430 281 437 272 c 132
 444 263 446 253 444 242 c 132
 442 231 437 222 428 216 c 132
 419 210 410 208 399 210 c 4
 377 214 350 215 320 214 c 4
 308 213 295 213 282 212 c 5
 281 208 281 201 281 192 c 4
 278 134 277 90 277 61 c 4
 277 50 274 42 266 34 c 132
 258 26 249 21 237 21 c 132
 225 21 217 26 209 34 c 132
 201 42 197 50 197 61 c 4
 197 91 198 137 201 196 c 4
 201 203 201 202 201 206 c 5
 181 205 165 205 150 204 c 4
 122 203 95 204 72 208 c 4
 60 209 51 214 44 223 c 132
 37 232 34 241 36 252 c 132
 37 263 43 272 52 279 c 132
 61 285 69 288 81 287 c 4
EndSplineSet
EndChar

StartChar: parenleft
Encoding: 40 40 35
Width: 480
Flags: HW
LayerCount: 2
Fore
SplineSet
275 84 m 5
 276 62 276 43 276 24 c 4
 276 13 272 4 264 -4 c 132
 256 -12 248 -16 236 -16 c 132
 224 -16 215 -12 207 -4 c 132
 199 4 196 13 196 24 c 4
 196 41 196 57 195 76 c 5
 165 82 138 96 116 116 c 4
 86 144 69 179 65 220 c 4
 61 264 74 300 102 332 c 4
 124 357 155 374 193 383 c 5
 196 413 199 442 204 468 c 4
 206 480 213 487 222 493 c 132
 232 499 241 502 252 500 c 132
 263 498 271 491 277 482 c 132
 283 473 285 463 283 452 c 4
 279 432 276 411 274 388 c 5
 305 384 332 371 355 351 c 4
 385 323 402 290 404 248 c 4
 406 206 392 169 364 138 c 4
 342 113 311 94 275 84 c 5
269 308 m 5
 268 285 269 258 270 230 c 4
 270 213 271 193 272 168 c 5
 285 174 296 181 305 191 c 4
 319 206 325 224 324 244 c 4
 323 264 315 280 301 292 c 4
 292 300 281 304 269 308 c 5
192 161 m 5
 191 189 190 211 190 228 c 4
 189 254 188 278 189 299 c 5
 177 295 169 287 162 279 c 4
 150 265 143 248 145 228 c 4
 147 208 155 189 170 175 c 4
 176 169 184 165 192 161 c 5
EndSplineSet
EndChar

StartChar: numbersign
Encoding: 35 35 36
Width: 480
Flags: HW
LayerCount: 2
Fore
SplineSet
362 372 m 5
 363 371 362 372 363 371 c 5
 363 372 363 371 363 372 c 5
 362 372 363 372 362 372 c 5
394 13 m 6
 262 13 l 6
 254 13 239 13 214 11 c 4
 198 9 185 8 175 7 c 4
 152 6 132 7 116 9 c 4
 93 12 74 18 59 27 c 4
 52 31 47 34 45 38 c 132
 43 42 42 47 40 56 c 4
 39 60 39 64 39 69 c 4
 38 78 37 91 36 107 c 4
 35 135 35 171 36 215 c 4
 37 316 40 379 44 402 c 4
 46 412 49 421 57 426 c 132
 65 431 74 434 84 432 c 4
 90 431 96 431 100 427 c 4
 101 427 99 427 100 428 c 4
 104 430 109 430 113 432 c 4
 117 433 124 433 132 434 c 4
 144 436 160 435 180 436 c 4
 192 437 205 437 221 438 c 4
 222 438 223 438 228 438 c 132
 233 438 234 438 239 438 c 132
 244 438 243 438 244 438 c 4
 247 439 253 438 260 439 c 4
 262 439 265 440 271 441 c 132
 277 442 281 442 283 442 c 4
 297 443 308 443 318 444 c 4
 338 445 356 446 370 444 c 4
 380 443 389 441 396 439 c 4
 407 436 414 432 421 426 c 4
 427 421 431 413 433 404 c 4
 434 402 434 401 434 399 c 4
 435 396 434 393 434 389 c 4
 435 383 435 374 435 362 c 4
 435 334 435 334 435 282 c 4
 435 262 435 261 435 233 c 4
 434 191 434 169 434 166 c 4
 435 164 435 161 436 155 c 4
 436 153 437 149 438 142 c 132
 439 135 440 132 440 131 c 4
 441 124 441 118 442 113 c 4
 445 97 445 83 445 72 c 4
 446 64 446 57 444 52 c 4
 442 41 439 32 433 25 c 4
 425 16 416 12 404 12 c 4
 401 12 399 11 396 12 c 4
 395 12 395 12 394 13 c 6
EndSplineSet
EndChar

StartChar: percent
Encoding: 37 37 37
Width: 480
Flags: HW
LayerCount: 2
Fore
SplineSet
337 314 m 5
 326 314 314 314 302 315 c 4
 282 316 252 319 213 323 c 4
 196 325 184 326 176 327 c 4
 148 330 122 332 102 332 c 5
 103 327 103 319 100 314 c 4
 92 293 89 250 92 188 c 4
 93 168 95 146 98 121 c 5
 118 141 141 162 168 183 c 4
 190 202 221 226 260 255 c 4
 261 256 266 260 274 266 c 132
 282 272 287 274 289 276 c 4
 309 291 325 304 337 314 c 5
60 403 m 4
 93 405 133 402 182 398 c 4
 191 397 204 397 221 395 c 4
 259 391 287 388 306 387 c 4
 335 385 362 385 384 388 c 4
 385 388 385 387 386 388 c 4
 387 388 387 388 390 389 c 6
 394 390 l 6
 395 390 395 390 396 391 c 4
 400 392 404 393 407 394 c 4
 410 395 412 395 415 395 c 4
 418 396 419 396 422 395 c 4
 425 395 426 394 429 393 c 4
 434 391 440 390 444 386 c 4
 451 380 454 373 457 363 c 4
 459 359 459 352 460 345 c 4
 461 336 461 326 460 313 c 4
 459 308 461 300 460 292 c 4
 459 291 459 289 459 285 c 132
 459 281 458 279 458 278 c 4
 457 274 457 272 457 271 c 4
 457 267 457 268 457 258 c 4
 457 257 458 253 458 248 c 132
 458 243 458 239 458 237 c 4
 459 206 459 179 458 158 c 4
 458 128 458 104 456 84 c 4
 454 56 449 38 444 27 c 4
 440 21 436 16 430 12 c 4
 426 10 423 9 419 7 c 4
 415 6 409 5 403 4 c 4
 395 3 385 4 372 5 c 4
 362 6 349 7 333 9 c 4
 329 10 321 10 309 12 c 132
 297 14 290 14 289 14 c 4
 268 17 248 18 233 20 c 4
 174 25 132 24 108 19 c 5
 108 19 l 6
 106 18 105 19 103 18 c 132
 101 17 101 17 100 17 c 4
 97 16 95 15 92 14 c 4
 87 13 81 13 77 12 c 4
 73 12 70 12 66 13 c 4
 59 15 52 18 47 22 c 4
 40 27 36 33 34 41 c 4
 33 45 32 48 32 52 c 5
 32 52 l 6
 32 53 32 57 31 62 c 132
 30 67 30 72 29 74 c 4
 28 84 29 93 28 101 c 4
 25 133 22 160 20 185 c 4
 16 258 21 310 33 340 c 4
 34 342 35 342 36 344 c 4
 31 349 28 356 27 364 c 4
 26 374 30 382 36 390 c 132
 42 398 50 402 60 403 c 4
EndSplineSet
EndChar

StartChar: period
Encoding: 46 46 38
Width: 480
Flags: HW
LayerCount: 2
Fore
SplineSet
230 128 m 4
 202 131 180 143 165 163 c 4
 156 175 149 194 144 218 c 4
 141 233 141 249 145 266 c 132
 149 283 154 298 164 310 c 4
 176 328 193 339 212 344 c 132
 231 349 251 348 271 339 c 4
 283 334 293 326 304 314 c 132
 315 302 323 290 329 276 c 4
 337 261 340 245 341 230 c 4
 342 209 336 191 323 177 c 4
 300 152 277 139 256 135 c 5
 249 130 240 127 230 128 c 4
EndSplineSet
EndChar

StartChar: less
Encoding: 60 60 39
Width: 480
Flags: HW
LayerCount: 2
Fore
SplineSet
404 386 m 4
 389 382 371 374 352 365 c 4
 331 355 300 339 263 315 c 4
 261 314 258 312 252 308 c 132
 246 304 242 302 241 301 c 4
 232 296 225 291 219 287 c 4
 202 276 186 268 174 261 c 4
 172 260 171 260 167 258 c 6
 166 257 l 6
 165 257 164 257 163 256 c 132
 162 255 161 255 160 254 c 132
 159 253 157 253 156 253 c 4
 146 249 138 244 131 240 c 4
 129 239 130 240 128 239 c 5
 139 233 151 226 165 220 c 4
 185 211 220 199 265 184 c 4
 266 184 266 184 268 183 c 132
 270 182 271 182 272 182 c 4
 311 169 339 159 358 151 c 4
 390 139 416 126 436 113 c 4
 444 108 450 99 452 89 c 132
 454 79 451 70 446 62 c 132
 441 54 433 49 423 47 c 132
 413 45 404 47 396 52 c 4
 381 63 360 73 332 84 c 4
 314 91 286 101 249 113 c 6
 247 114 l 6
 246 115 245 115 244 115 c 132
 243 115 243 116 242 116 c 4
 195 132 159 144 137 154 c 4
 99 170 69 187 49 206 c 5
 48 206 l 6
 46 208 47 208 46 209 c 4
 44 211 44 211 42 213 c 4
 38 219 34 226 33 234 c 4
 32 244 35 253 40 262 c 4
 43 266 48 271 52 275 c 4
 57 280 66 286 76 292 c 4
 82 296 89 300 97 304 c 6
 140 325 l 6
 152 330 166 338 181 348 c 4
 187 352 195 358 203 363 c 4
 204 364 207 365 213 369 c 132
 219 373 223 375 225 376 c 4
 265 401 297 419 321 431 c 4
 343 442 365 450 385 455 c 4
 394 458 403 456 412 452 c 132
 421 448 426 440 429 430 c 132
 432 420 431 412 426 403 c 132
 421 394 414 389 404 386 c 4
EndSplineSet
EndChar

StartChar: asterisk
Encoding: 42 42 40
Width: 480
Flags: HW
LayerCount: 2
Fore
SplineSet
127 356 m 5
 147 339 178 312 221 277 c 4
 221 276 221 277 222 276 c 4
 264 242 296 216 316 198 c 4
 336 181 354 164 370 149 c 5
 368 208 366 240 367 247 c 132
 368 254 369 264 372 276 c 4
 373 280 372 286 374 291 c 6
 375 294 l 6
 376 296 376 297 377 300 c 132
 378 303 378 305 378 306 c 4
 380 316 380 324 382 331 c 4
 385 347 387 361 387 371 c 4
 387 373 387 372 387 374 c 4
 381 375 373 375 364 374 c 4
 345 373 311 369 260 365 c 4
 257 364 257 364 255 364 c 4
 210 360 176 358 156 356 c 4
 145 355 135 356 127 356 c 5
71 453 m 4
 83 452 120 454 180 456 c 4
 201 457 218 457 232 458 c 4
 276 459 313 459 340 458 c 4
 379 456 406 452 421 445 c 4
 425 443 428 441 431 438 c 4
 437 434 442 428 446 423 c 4
 454 409 459 392 459 371 c 4
 459 357 457 338 453 318 c 4
 452 311 451 303 448 292 c 4
 448 291 448 289 447 286 c 132
 446 283 446 281 445 279 c 6
 445 276 l 6
 443 271 443 265 442 261 c 4
 440 252 439 247 439 243 c 4
 438 239 440 208 442 150 c 4
 443 149 442 149 442 148 c 4
 443 115 443 93 444 80 c 4
 444 65 444 65 444 57 c 4
 444 52 444 52 444 49 c 4
 444 47 444 46 444 44 c 4
 443 36 443 32 441 29 c 132
 439 26 435 23 429 19 c 4
 422 15 414 11 404 8 c 4
 397 6 389 6 380 6 c 4
 368 5 352 6 333 8 c 4
 325 9 317 10 306 12 c 4
 304 12 300 12 293 13 c 132
 286 14 282 15 281 15 c 4
 273 16 269 17 266 17 c 4
 262 18 247 18 220 18 c 4
 200 17 184 17 172 18 c 4
 144 18 122 17 106 18 c 4
 95 19 87 19 81 20 c 4
 77 21 73 20 70 21 c 4
 67 22 66 23 63 24 c 4
 59 26 55 27 51 30 c 4
 50 31 48 32 46 34 c 132
 44 36 45 35 44 36 c 132
 43 37 42 38 41 39 c 132
 40 40 40 40 40 41 c 132
 40 42 40 43 39 44 c 132
 38 45 38 44 38 46 c 132
 38 49 38 49 38 51 c 132
 38 52 38 54 37 57 c 6
 37 60 l 6
 37 61 38 60 38 61 c 132
 38 62 38 65 38 67 c 4
 38 70 38 73 39 79 c 4
 40 86 40 91 40 92 c 4
 41 94 40 94 40 95 c 6
 40 96 l 6
 40 111 39 128 36 148 c 4
 35 160 33 178 29 204 c 4
 26 220 26 233 25 242 c 4
 21 276 18 304 18 327 c 4
 18 360 21 389 29 416 c 4
 30 420 32 423 35 427 c 4
 37 435 41 441 48 446 c 132
 55 451 62 453 71 453 c 4
EndSplineSet
EndChar

StartChar: f
Encoding: 102 102 41
Width: 480
Flags: HW
LayerCount: 2
Fore
SplineSet
197 268 m 4
 207 267 223 267 245 268 c 4
 250 268 250 268 254 268 c 4
 283 269 307 269 324 267 c 5
 324 271 323 276 324 281 c 4
 324 285 325 295 326 311 c 132
 327 327 328 337 328 339 c 4
 329 359 330 374 331 386 c 4
 331 388 331 387 331 388 c 5
 319 387 305 387 291 388 c 4
 273 388 248 388 212 390 c 4
 184 392 161 394 149 395 c 4
 127 396 109 395 92 393 c 4
 80 392 71 395 62 402 c 132
 53 409 49 418 48 429 c 132
 47 440 51 450 58 459 c 132
 65 468 72 472 84 473 c 4
 104 475 127 476 152 475 c 4
 166 474 188 472 216 470 c 5
 217 470 l 5
 250 468 275 468 292 468 c 4
 317 467 337 467 356 471 c 4
 360 472 359 472 363 473 c 4
 369 474 374 473 380 472 c 4
 389 469 396 465 402 458 c 4
 406 454 409 446 410 439 c 4
 411 437 411 435 412 431 c 4
 412 427 412 427 412 419 c 4
 412 410 412 397 411 382 c 4
 410 370 409 353 408 333 c 4
 408 331 407 323 406 307 c 132
 405 291 404 280 404 276 c 4
 403 256 403 236 402 221 c 4
 398 129 397 71 401 44 c 4
 403 32 400 22 393 13 c 132
 386 4 378 -1 367 -3 c 132
 356 -5 346 -1 337 5 c 132
 328 12 324 20 322 32 c 4
 318 60 316 111 320 186 c 5
 306 188 285 189 257 188 c 4
 253 188 253 188 248 188 c 4
 224 187 206 187 194 188 c 4
 183 189 173 192 166 200 c 132
 159 208 156 218 156 229 c 132
 156 240 160 250 168 257 c 132
 176 264 185 269 197 268 c 4
EndSplineSet
EndChar

StartChar: parenright
Encoding: 41 41 42
Width: 480
Flags: HW
LayerCount: 2
Fore
SplineSet
177 257 m 5
 192 257 207 257 222 256 c 4
 241 255 259 256 278 255 c 5
 266 273 249 285 226 290 c 4
 211 294 199 291 190 281 c 4
 185 276 181 267 177 257 c 5
176 185 m 5
 178 177 180 169 184 162 c 4
 190 149 197 140 207 135 c 5
 216 139 224 139 233 136 c 4
 250 131 263 132 274 141 c 132
 285 150 290 163 293 182 c 5
 269 183 245 183 220 184 c 4
 205 185 190 185 176 185 c 5
-2 252 m 4
 10 256 39 257 84 258 c 4
 94 258 93 258 103 258 c 5
 108 286 120 310 137 329 c 4
 165 360 199 370 242 360 c 4
 286 349 320 325 342 288 c 4
 349 277 354 265 358 252 c 5
 406 249 438 247 452 243 c 4
 462 241 469 236 474 228 c 132
 479 220 480 210 478 200 c 132
 476 190 470 183 462 178 c 132
 454 173 446 170 436 173 c 4
 427 175 402 177 365 180 c 5
 361 141 347 109 321 87 c 4
 294 64 263 55 227 63 c 5
 219 59 210 58 201 60 c 4
 165 69 138 93 119 131 c 4
 111 148 105 166 102 186 c 5
 93 186 93 186 85 186 c 4
 65 185 50 185 38 184 c 4
 33 183 28 184 24 183 c 6
 20 183 l 5
 11 179 2 181 -7 185 c 132
 -16 189 -21 196 -25 206 c 132
 -29 216 -27 225 -23 234 c 132
 -19 243 -12 249 -2 252 c 4
EndSplineSet
EndChar

StartChar: y
Encoding: 121 121 43
Width: 480
Flags: HW
LayerCount: 2
Fore
SplineSet
108 454 m 4
 114 443 126 427 143 407 c 4
 144 406 143 406 144 405 c 4
 161 385 174 368 182 356 c 4
 191 342 201 324 213 303 c 5
 217 307 223 312 227 316 c 4
 236 325 248 338 264 357 c 5
 267 360 l 5
 287 383 301 400 313 412 c 4
 333 432 351 447 370 459 c 4
 379 465 389 467 400 465 c 132
 411 463 420 458 426 448 c 132
 432 439 434 429 432 418 c 132
 430 407 424 398 415 392 c 4
 401 382 385 370 370 355 c 4
 360 345 346 330 327 308 c 5
 324 305 l 6
 307 285 294 270 284 260 c 4
 273 249 264 241 255 233 c 5
 272 204 288 177 302 157 c 4
 327 121 352 91 377 66 c 4
 385 58 389 48 389 37 c 132
 389 26 385 17 377 9 c 132
 369 1 359 -3 348 -3 c 132
 337 -3 328 2 320 9 c 4
 292 37 264 72 236 113 c 4
 216 141 195 177 167 223 c 4
 166 226 164 231 160 236 c 132
 156 241 153 247 150 252 c 132
 147 257 146 259 145 260 c 4
 133 282 122 301 113 315 c 4
 108 324 98 337 84 354 c 5
 82 356 l 6
 72 368 64 377 59 384 c 4
 50 396 42 408 37 419 c 4
 33 429 32 438 36 449 c 132
 40 460 45 467 55 472 c 132
 65 477 74 479 85 475 c 132
 96 471 104 464 108 454 c 4
EndSplineSet
EndChar

StartChar: colon
Encoding: 58 58 44
Width: 480
Flags: HW
LayerCount: 2
Fore
SplineSet
300 267 m 4
 302 272 304 277 308 281 c 4
 315 289 323 294 334 296 c 4
 341 297 349 297 354 295 c 4
 363 292 370 287 375 279 c 4
 381 269 384 259 383 247 c 132
 382 235 379 226 372 217 c 4
 368 212 361 207 354 204 c 4
 345 200 336 200 327 203 c 4
 319 206 311 209 306 216 c 4
 302 220 299 226 296 232 c 4
 291 244 292 256 300 267 c 4
277 364 m 4
 277 357 278 346 276 333 c 4
 276 329 275 319 273 301 c 5
 274 277 274 256 273 236 c 4
 272 210 271 186 268 166 c 5
 270 142 275 125 281 113 c 4
 285 106 288 102 292 101 c 4
 297 100 306 101 315 104 c 5
 318 108 318 109 319 110 c 4
 323 114 326 117 329 121 c 4
 333 125 337 128 341 132 c 4
 351 142 361 148 371 151 c 4
 380 155 389 153 398 149 c 132
 407 145 412 138 416 129 c 4
 419 120 418 111 414 102 c 132
 410 93 405 88 396 84 c 5
 395 84 l 6
 394 83 392 82 390 80 c 4
 388 78 390 78 388 76 c 4
 386 63 379 54 367 48 c 4
 334 32 305 26 279 30 c 4
 259 34 241 45 228 62 c 5
 200 31 163 25 119 45 c 4
 110 49 101 56 92 63 c 4
 88 67 81 73 74 81 c 5
 74 82 l 5
 67 89 62 93 58 96 c 4
 50 102 45 110 44 120 c 132
 43 130 46 139 52 147 c 132
 58 155 66 160 76 161 c 132
 86 162 95 159 103 153 c 4
 109 149 117 141 127 131 c 5
 127 130 l 5
 137 119 144 113 148 111 c 4
 154 108 160 107 164 107 c 4
 167 106 168 107 170 108 c 4
 174 110 178 114 182 123 c 4
 187 135 193 149 196 169 c 5
 195 186 195 206 196 228 c 4
 197 248 197 273 200 303 c 5
 200 303 l 6
 199 313 200 324 199 336 c 4
 199 337 199 342 198 351 c 132
 197 360 197 365 197 367 c 4
 196 375 196 382 196 386 c 5
 143 389 100 389 65 389 c 4
 55 389 46 393 39 400 c 132
 32 407 28 416 28 426 c 132
 28 436 32 444 39 451 c 132
 46 458 55 461 65 461 c 4
 105 461 165 460 243 456 c 4
 321 452 379 450 417 450 c 4
 427 450 436 446 443 439 c 132
 450 432 453 424 453 414 c 132
 453 404 450 395 443 388 c 132
 436 381 427 378 417 378 c 4
 381 378 333 379 274 382 c 5
 277 377 278 370 277 364 c 4
EndSplineSet
EndChar

StartChar: c
Encoding: 99 99 45
Width: 480
Flags: HW
LayerCount: 2
Fore
SplineSet
76 471 m 4
 87 471 87 471 107 471 c 4
 135 472 157 472 172 471 c 4
 204 470 231 466 255 461 c 4
 286 455 314 443 338 428 c 4
 374 405 400 372 416 327 c 132
 432 282 435 235 424 189 c 132
 413 143 391 107 356 79 c 4
 336 63 309 52 276 43 c 4
 257 39 232 35 199 31 c 4
 197 30 194 30 190 29 c 6
 180 28 l 6
 168 27 159 27 152 26 c 4
 124 23 100 27 82 36 c 4
 72 41 66 48 62 59 c 132
 58 70 60 79 64 89 c 132
 68 99 76 105 87 109 c 132
 98 113 107 112 117 108 c 4
 121 105 133 104 147 105 c 4
 152 106 159 106 169 108 c 4
 175 109 178 108 180 108 c 4
 184 109 187 109 190 110 c 4
 219 114 242 117 257 121 c 4
 279 126 296 133 308 142 c 4
 328 157 341 181 347 210 c 132
 353 239 351 270 341 298 c 132
 331 326 316 348 295 362 c 4
 267 380 224 389 169 391 c 4
 155 392 136 392 108 392 c 4
 94 391 83 391 76 391 c 4
 65 391 55 395 47 403 c 132
 39 411 36 419 36 431 c 132
 36 443 39 452 47 460 c 132
 55 468 65 471 76 471 c 4
EndSplineSet
EndChar

StartChar: z
Encoding: 122 122 46
Width: 533
VWidth: 888
Flags: HW
LayerCount: 2
Fore
SplineSet
298 127 m 1
 298 111 298 95 298 79 c 0
 298 69 295 61 288 54 c 128
 281 47 273 43 263 43 c 128
 253 43 244 47 237 54 c 128
 230 61 226 69 226 79 c 0
 226 97 226 116 225 136 c 1
 185 140 155 158 136 189 c 0
 128 203 122 217 119 233 c 1
 97 232 79 231 65 230 c 0
 55 230 46 232 39 239 c 128
 32 246 28 254 27 264 c 128
 26 274 29 283 36 290 c 128
 43 297 50 301 60 302 c 0
 75 303 96 305 123 306 c 1
 133 340 150 367 176 388 c 0
 188 397 201 405 215 410 c 1
 217 438 221 464 227 488 c 0
 229 498 235 506 243 511 c 128
 251 516 260 517 270 515 c 128
 280 513 288 507 293 499 c 128
 298 491 299 482 297 472 c 0
 293 455 290 436 288 416 c 1
 292 415 291 415 295 414 c 0
 326 408 351 390 369 359 c 0
 377 346 384 332 388 317 c 1
 421 316 452 314 482 311 c 0
 492 310 499 306 506 298 c 128
 513 290 515 282 514 272 c 128
 513 262 509 253 501 247 c 128
 493 241 484 238 474 239 c 0
 449 241 423 244 395 244 c 1
 393 222 387 201 377 184 c 0
 360 152 334 134 300 128 c 1
 299 127 l 1
 298 127 l 1
285 315 m 1
 293 315 302 316 310 316 c 1
 303 330 295 338 285 342 c 1
 285 334 285 325 285 315 c 1
290 243 m 1
 290 236 291 227 292 216 c 0
 292 210 293 205 293 200 c 1
 302 203 309 209 314 219 c 0
 318 226 321 234 322 244 c 1
 312 244 301 243 290 243 c 1
217 240 m 1
 209 240 202 239 193 239 c 1
 194 235 196 231 198 228 c 0
 203 220 210 213 220 210 c 1
 219 223 217 233 217 240 c 1
213 312 m 1
 213 318 213 317 213 323 c 1
 210 319 206 316 204 312 c 1
 208 312 209 312 213 312 c 1
EndSplineSet
EndChar

StartChar: seven
Encoding: 55 55 47
Width: 480
Flags: HW
LayerCount: 2
Fore
SplineSet
356 114 m 5
 355 116 356 116 355 118 c 4
 339 154 323 187 310 216 c 4
 300 237 291 256 282 274 c 4
 265 308 249 332 237 351 c 4
 236 353 236 354 235 355 c 5
 226 341 218 324 209 305 c 132
 200 286 188 259 171 222 c 5
 171 221 l 6
 170 220 170 221 170 220 c 4
 155 185 143 159 135 142 c 4
 128 127 128 127 121 114 c 5
 130 112 138 111 148 111 c 4
 165 110 190 111 225 114 c 4
 227 114 226 114 228 114 c 4
 264 117 289 118 308 117 c 4
 326 117 342 117 356 114 c 5
271 200 m 4
 270 196 269 193 268 189 c 4
 266 184 265 179 262 175 c 4
 256 166 248 162 237 161 c 4
 226 160 216 164 208 171 c 4
 207 172 206 172 205 174 c 6
 204 174 l 5
 193 181 189 191 188 203 c 4
 188 208 188 213 190 218 c 4
 192 221 194 223 196 226 c 132
 198 229 200 230 203 233 c 4
 207 237 214 238 220 240 c 4
 224 242 225 243 229 243 c 4
 233 244 235 244 239 243 c 4
 245 241 251 238 256 234 c 4
 259 231 260 230 262 227 c 4
 266 223 269 217 270 211 c 4
 271 207 272 204 271 200 c 4
237 443 m 4
 248 439 258 432 269 421 c 4
 277 413 285 402 294 390 c 4
 308 369 324 342 343 306 c 4
 352 287 361 267 372 245 c 4
 386 216 402 183 418 146 c 4
 423 134 429 119 435 105 c 6
 437 99 l 6
 439 95 441 89 443 85 c 132
 445 81 445 79 446 78 c 4
 450 69 450 60 446 51 c 132
 442 42 437 37 428 33 c 4
 414 27 402 29 391 40 c 5
 384 37 377 37 370 40 c 4
 353 45 332 49 307 50 c 4
 291 50 266 49 232 46 c 4
 230 45 230 45 229 45 c 4
 193 42 166 42 146 43 c 4
 121 44 98 47 78 52 c 5
 67 48 56 48 46 54 c 4
 38 59 33 66 31 76 c 132
 29 86 31 94 36 102 c 4
 48 122 61 145 73 172 c 4
 81 189 93 213 107 247 c 4
 108 248 107 248 108 249 c 4
 125 287 138 315 147 335 c 4
 163 367 179 396 195 420 c 5
 198 429 203 436 211 440 c 132
 219 444 228 446 237 443 c 4
EndSplineSet
EndChar

StartChar: eight
Encoding: 56 56 48
Width: 480
Flags: HW
LayerCount: 2
Fore
SplineSet
301 426 m 4
 326 381 355 321 386 252 c 4
 425 164 448 104 452 70 c 4
 454 60 450 51 445 44 c 132
 440 37 432 33 423 31 c 4
 417 30 410 31 405 34 c 5
 381 36 354 36 326 36 c 4
 298 35 298 36 242 34 c 4
 234 33 228 33 224 33 c 4
 160 30 111 30 74 33 c 5
 64 28 54 27 43 32 c 4
 34 36 29 43 25 52 c 132
 21 61 22 68 26 77 c 4
 38 104 53 134 73 164 c 4
 85 183 102 208 126 243 c 4
 126 244 126 243 127 244 c 4
 153 281 171 309 183 328 c 4
 202 358 217 387 228 413 c 4
 232 421 237 427 245 431 c 4
 248 435 251 436 255 438 c 4
 263 442 272 445 281 442 c 132
 290 439 297 434 301 426 c 4
EndSplineSet
EndChar

StartChar: nine
Encoding: 57 57 49
Width: 480
Flags: HW
LayerCount: 2
Fore
SplineSet
133 98 m 5
 155 101 180 103 206 104 c 4
 236 106 280 106 340 105 c 4
 349 105 350 105 355 105 c 5
 351 116 350 116 346 127 c 4
 332 163 311 206 283 258 c 4
 278 268 267 290 248 324 c 5
 249 324 244 331 237 345 c 5
 226 319 213 285 195 243 c 4
 175 199 154 150 133 98 c 5
48 84 m 4
 71 139 98 201 128 271 c 4
 148 319 164 356 176 384 c 4
 183 400 188 411 192 420 c 4
 195 425 196 429 198 432 c 4
 199 434 198 434 199 436 c 4
 203 444 206 447 207 449 c 132
 208 451 209 451 213 452 c 4
 216 453 219 453 221 454 c 4
 230 458 239 457 248 453 c 4
 252 451 256 449 260 445 c 4
 264 442 267 438 271 433 c 4
 275 427 282 418 287 407 c 4
 289 404 290 400 292 396 c 6
 312 357 l 6
 330 323 343 302 348 291 c 4
 376 237 397 192 412 155 c 4
 425 125 436 96 443 70 c 4
 446 60 444 51 440 42 c 132
 436 33 428 28 418 25 c 4
 405 21 393 24 383 33 c 5
 369 33 369 33 340 33 c 4
 281 34 238 33 210 32 c 4
 161 29 116 25 76 16 c 4
 66 14 56 16 48 21 c 132
 40 26 36 34 33 44 c 4
 30 59 35 72 48 81 c 4
 49 82 48 83 48 84 c 4
EndSplineSet
EndChar

StartChar: three
Encoding: 51 51 50
Width: 480
Flags: HW
LayerCount: 2
Fore
SplineSet
215 347 m 5
 197 341 182 332 170 320 c 4
 146 298 133 270 129 236 c 4
 125 203 133 173 152 148 c 4
 169 126 193 112 223 106 c 4
 224 107 225 107 226 108 c 5
 225 109 225 108 224 109 c 4
 220 116 217 127 216 139 c 4
 215 148 215 158 215 172 c 4
 215 184 214 203 213 228 c 4
 213 240 213 248 212 254 c 4
 211 291 213 323 215 347 c 5
234 23 m 4
 172 29 123 55 88 100 c 4
 57 141 45 189 49 243 c 4
 54 298 77 343 116 379 c 4
 160 419 215 438 283 436 c 4
 335 434 376 409 404 364 c 4
 428 326 440 282 436 230 c 4
 432 178 417 135 387 99 c 4
 356 61 315 40 266 36 c 5
 257 27 246 22 234 23 c 4
EndSplineSet
EndChar

StartChar: underscore
Encoding: 95 95 51
Width: 480
Flags: HW
LayerCount: 2
Fore
SplineSet
366 376 m 4
 364 376 364 376 363 375 c 4
 360 375 359 376 356 375 c 4
 355 375 352 374 348 374 c 132
 344 374 342 374 341 373 c 4
 336 372 333 372 330 372 c 4
 304 372 264 374 212 378 c 4
 166 381 165 380 142 382 c 4
 129 383 116 383 104 383 c 5
 103 345 103 294 103 232 c 4
 103 188 103 151 104 123 c 4
 104 112 104 112 104 103 c 5
 115 103 115 103 128 103 c 4
 156 102 197 102 249 102 c 4
 296 102 295 102 363 102 c 4
 367 102 367 102 379 102 c 5
 377 114 376 129 374 149 c 4
 372 169 373 201 372 245 c 4
 372 248 372 248 372 254 c 4
 371 302 371 334 369 353 c 4
 368 362 367 370 366 376 c 4
71 451 m 4
 93 452 118 452 145 451 c 4
 162 450 186 449 217 447 c 4
 268 443 305 441 329 441 c 4
 330 441 329 441 330 441 c 4
 332 442 333 442 335 442 c 4
 336 442 337 442 341 443 c 132
 345 444 348 444 349 444 c 4
 352 445 354 444 357 444 c 4
 366 445 375 445 380 445 c 4
 387 445 386 445 390 445 c 4
 393 444 395 445 398 444 c 132
 401 443 401 443 404 442 c 4
 408 440 412 439 416 435 c 4
 421 430 425 422 428 414 c 4
 430 410 430 404 432 397 c 4
 434 386 435 374 437 357 c 4
 439 337 439 304 440 255 c 4
 440 249 440 249 440 246 c 4
 441 204 441 173 443 153 c 4
 445 126 447 109 450 102 c 132
 453 95 454 88 452 81 c 5
 454 77 453 72 453 68 c 4
 453 58 450 50 444 44 c 132
 438 38 430 34 420 34 c 4
 415 34 414 34 397 34 c 6
 390 34 l 6
 383 34 382 34 374 34 c 132
 366 34 367 34 363 34 c 4
 296 34 297 34 249 34 c 4
 197 34 157 34 128 35 c 4
 110 35 97 35 87 36 c 4
 82 36 79 35 75 36 c 4
 72 36 70 35 68 36 c 4
 62 37 58 39 55 40 c 132
 52 41 49 44 45 49 c 4
 41 53 41 57 40 59 c 132
 39 61 38 65 37 72 c 4
 37 76 37 79 36 84 c 4
 35 93 36 106 36 122 c 4
 35 150 35 187 35 232 c 4
 34 336 34 396 36 414 c 4
 37 421 39 428 43 433 c 4
 49 445 58 450 71 451 c 4
EndSplineSet
EndChar

StartChar: six
Encoding: 54 54 52
Width: 480
Flags: HW
LayerCount: 2
Fore
SplineSet
208 108 m 5
 214 109 221 109 227 107 c 4
 254 98 279 103 304 121 c 4
 331 141 349 168 360 204 c 4
 372 241 370 277 356 308 c 4
 340 344 307 368 260 383 c 4
 225 395 197 391 172 372 c 4
 147 354 131 327 122 290 c 4
 113 251 117 214 131 181 c 4
 146 145 172 122 208 108 c 5
215 211 m 4
 213 212 214 211 212 212 c 4
 202 219 196 227 194 239 c 4
 191 251 194 264 203 274 c 4
 203 275 203 275 204 276 c 4
 206 280 208 282 212 286 c 4
 219 293 226 298 236 299 c 4
 249 301 261 295 271 285 c 4
 276 280 280 274 282 267 c 4
 283 263 284 257 284 253 c 4
 284 233 275 219 258 210 c 4
 252 206 245 205 238 204 c 4
 230 203 222 207 215 211 c 4
182 32 m 4
 122 53 82 92 57 149 c 4
 36 199 32 253 44 308 c 4
 56 365 83 407 124 437 c 4
 171 472 225 480 285 460 c 4
 354 437 402 397 428 340 c 4
 451 291 453 238 436 181 c 4
 420 129 392 87 351 57 c 4
 304 22 255 13 203 30 c 5
 196 29 188 30 182 32 c 4
EndSplineSet
EndChar

StartChar: t
Encoding: 116 116 53
Width: 480
Flags: HW
LayerCount: 2
Fore
SplineSet
60 12 m 4
 64 8 69 7 77 5 c 4
 81 4 87 4 93 3 c 4
 104 2 117 1 134 0 c 4
 164 -1 203 -2 248 -1 c 4
 288 0 325 1 358 3 c 4
 373 4 386 3 395 4 c 4
 400 5 403 4 406 5 c 4
 415 6 421 7 423 9 c 132
 425 11 429 14 433 21 c 4
 438 30 440 40 439 51 c 132
 438 62 435 70 428 77 c 4
 419 86 410 88 399 84 c 4
 398 84 398 84 398 84 c 5
 392 82 386 78 382 71 c 5
 383 73 385 75 386 77 c 132
 387 79 388 81 388 81 c 132
 388 81 388 82 389 83 c 132
 390 84 392 84 393 84 c 132
 394 84 395 83 398 84 c 5
 396 84 393 85 390 84 c 4
 382 83 371 84 356 83 c 4
 329 81 298 80 265 79 c 5
 266 99 267 122 267 147 c 4
 267 167 266 196 265 234 c 4
 265 235 265 234 265 236 c 4
 265 237 265 236 265 237 c 4
 264 282 263 317 263 340 c 4
 263 376 265 408 269 436 c 4
 271 447 269 458 264 467 c 132
 259 476 252 481 243 483 c 132
 234 485 226 483 219 476 c 132
 212 469 206 461 205 450 c 4
 201 418 198 381 198 341 c 4
 198 316 199 282 200 235 c 4
 200 234 200 234 200 231 c 4
 201 193 202 166 202 147 c 4
 202 122 202 99 201 79 c 5
 176 79 154 79 136 80 c 4
 120 81 108 82 99 83 c 4
 95 84 91 83 89 84 c 4
 82 88 75 88 67 85 c 132
 59 82 52 77 48 68 c 4
 44 59 42 49 44 38 c 132
 46 27 52 18 60 12 c 4
398 84 m 5
 398 84 l 5
 398 84 l 133
 398 84 l 5
EndSplineSet
EndChar

StartChar: j
Encoding: 106 106 54
Width: 480
Flags: HW
LayerCount: 2
Fore
SplineSet
255 380 m 4
 254 371 253 360 252 350 c 4
 251 335 248 314 244 286 c 4
 239 245 237 218 236 201 c 4
 235 176 239 155 244 140 c 4
 249 127 258 116 271 110 c 4
 290 100 318 95 355 95 c 4
 365 95 373 91 381 84 c 132
 389 77 392 68 392 57 c 132
 392 46 389 37 381 30 c 132
 373 23 365 19 355 19 c 4
 306 19 266 27 236 43 c 4
 206 59 184 82 172 114 c 4
 163 138 159 168 161 204 c 4
 162 223 165 253 170 296 c 4
 174 323 175 343 177 357 c 4
 178 366 178 374 179 382 c 4
 179 384 179 386 180 388 c 5
 159 389 125 390 80 392 c 4
 76 393 72 393 68 393 c 4
 58 394 49 397 42 405 c 132
 35 413 32 421 32 432 c 132
 32 443 36 452 44 459 c 132
 52 466 61 470 71 469 c 4
 73 469 77 469 83 468 c 4
 149 465 198 464 230 463 c 4
 297 461 356 460 408 460 c 4
 419 460 429 456 436 449 c 132
 443 442 446 433 446 422 c 132
 446 411 443 402 436 395 c 132
 429 388 419 384 408 384 c 4
 362 384 311 384 254 386 c 5
 255 384 255 383 255 380 c 4
EndSplineSet
EndChar

StartChar: ampersand
Encoding: 38 38 55
Width: 480
Flags: HW
LayerCount: 2
Fore
SplineSet
162 471 m 4
 163 471 162 471 164 471 c 4
 194 470 216 470 230 468 c 4
 274 464 312 453 340 439 c 4
 358 430 373 416 384 396 c 4
 390 384 396 369 400 351 c 4
 409 314 405 282 389 255 c 4
 376 232 354 216 325 204 c 4
 305 195 280 190 251 187 c 4
 233 185 211 184 184 184 c 4
 180 184 177 185 173 186 c 5
 172 174 172 160 172 148 c 4
 171 113 174 83 178 57 c 4
 180 45 178 36 172 27 c 132
 166 18 156 13 145 11 c 132
 134 9 125 12 116 18 c 132
 107 24 102 33 100 44 c 4
 95 75 91 109 92 148 c 4
 93 171 94 206 98 252 c 4
 99 264 99 275 100 282 c 4
 104 338 104 382 100 415 c 4
 99 425 103 435 108 443 c 132
 113 451 121 456 130 458 c 5
 139 468 150 472 162 471 c 4
EndSplineSet
EndChar

StartChar: four
Encoding: 52 52 56
Width: 480
Flags: HW
LayerCount: 2
Fore
SplineSet
213 29 m 4
 169 29 128 50 92 89 c 4
 53 133 30 184 24 244 c 4
 17 312 34 368 76 412 c 4
 124 461 195 480 289 473 c 4
 354 468 400 437 428 382 c 4
 451 338 458 286 446 226 c 4
 434 168 411 121 375 83 c 4
 331 38 282 19 225 27 c 4
 221 28 217 27 213 29 c 4
268 385 m 4
 264 367 261 347 260 323 c 4
 260 308 260 284 262 251 c 6
 262 250 l 6
 263 222 264 200 264 186 c 4
 264 161 263 138 259 118 c 4
 258 114 258 112 256 108 c 4
 257 107 258 107 259 106 c 4
 280 109 299 119 317 138 c 4
 343 164 360 198 368 240 c 132
 376 282 372 319 357 347 c 4
 343 375 319 389 283 393 c 4
 279 394 273 394 269 394 c 5
 269 390 269 388 268 385 c 4
EndSplineSet
EndChar

StartChar: slash
Encoding: 47 47 57
Width: 480
Flags: HW
LayerCount: 2
Fore
SplineSet
44 65 m 4
 58 82 74 101 91 122 c 4
 100 134 111 147 125 164 c 4
 127 167 130 171 134 175 c 4
 136 177 139 182 143 187 c 4
 150 196 156 202 160 208 c 4
 201 259 234 300 260 331 c 4
 298 375 334 413 368 447 c 4
 375 454 384 459 396 459 c 132
 408 459 416 455 424 447 c 132
 432 439 436 430 436 419 c 132
 436 408 431 398 424 390 c 4
 392 358 357 321 321 278 c 4
 295 248 263 207 223 157 c 4
 219 152 212 145 205 136 c 4
 204 135 204 134 202 132 c 132
 200 130 199 129 198 128 c 6
 196 125 l 6
 192 121 191 119 188 115 c 4
 174 98 162 83 153 71 c 4
 135 50 120 30 106 13 c 4
 99 4 89 0 78 -1 c 132
 67 -2 58 1 49 8 c 132
 40 15 37 25 36 36 c 132
 35 47 37 56 44 65 c 4
EndSplineSet
EndChar

StartChar: hyphen
Encoding: 45 45 58
Width: 480
Flags: HW
LayerCount: 2
Fore
SplineSet
63 315 m 4
 86 311 113 309 144 310 c 4
 163 311 192 313 230 316 c 4
 234 316 234 316 237 316 c 4
 276 319 307 319 328 320 c 4
 363 320 393 319 421 315 c 4
 433 313 441 308 448 299 c 132
 455 290 458 280 456 269 c 132
 454 258 449 249 440 243 c 132
 431 236 422 234 410 236 c 4
 387 240 359 240 329 240 c 4
 309 239 280 238 243 236 c 4
 241 235 240 236 236 236 c 4
 196 233 166 231 146 230 c 4
 111 229 81 232 53 236 c 4
 41 237 34 241 27 250 c 132
 20 259 17 269 19 280 c 132
 21 291 24 300 33 307 c 132
 42 314 51 317 63 315 c 4
EndSplineSet
EndChar

StartChar: five
Encoding: 53 53 59
Width: 480
Flags: HW
LayerCount: 2
Fore
SplineSet
214 37 m 0
 157 40 112 65 76 112 c 0
 44 155 29 204 33 258 c 0
 37 317 60 362 104 398 c 0
 153 436 217 452 298 444 c 0
 347 440 384 413 412 367 c 0
 435 327 444 282 440 231 c 0
 436 177 415 134 380 98 c 0
 340 57 288 36 222 36 c 0
 219 36 217 36 214 37 c 0
EndSplineSet
EndChar

StartChar: semicolon
Encoding: 59 59 60
Width: 480
Flags: HW
LayerCount: 2
Fore
SplineSet
290 350 m 4
 287 322 286 295 286 268 c 4
 286 230 289 199 294 172 c 4
 300 144 308 124 319 116 c 4
 323 113 327 112 331 113 c 4
 339 113 349 117 361 124 c 4
 369 128 378 129 387 126 c 132
 396 123 403 117 407 109 c 132
 411 101 414 93 411 84 c 132
 408 75 403 67 395 63 c 4
 373 51 352 44 332 44 c 4
 312 43 293 50 276 62 c 4
 264 72 255 85 247 100 c 5
 241 88 233 78 224 71 c 4
 207 57 188 50 165 50 c 4
 148 50 133 53 119 58 c 4
 100 64 86 75 75 88 c 4
 69 95 67 104 68 114 c 132
 69 124 73 130 80 136 c 132
 87 142 95 145 105 144 c 132
 115 143 122 138 128 131 c 4
 135 123 147 118 165 118 c 4
 171 118 176 120 180 124 c 4
 184 128 187 133 191 142 c 4
 198 162 202 192 200 232 c 4
 199 249 199 270 196 296 c 4
 196 297 196 298 196 300 c 132
 196 302 196 305 196 307 c 132
 196 310 196 310 196 313 c 6
 195 315 l 6
 194 322 195 328 194 332 c 4
 193 344 192 355 192 362 c 4
 192 364 192 364 192 366 c 4
 146 367 106 364 73 358 c 4
 63 356 55 359 47 364 c 132
 39 369 35 376 33 386 c 132
 31 396 33 404 38 412 c 132
 43 420 51 424 60 426 c 4
 88 431 121 434 157 435 c 4
 183 436 216 435 254 432 c 4
 264 431 277 431 295 429 c 4
 348 425 387 423 412 423 c 4
 422 423 431 419 437 413 c 132
 443 407 447 399 447 389 c 132
 447 379 443 371 437 364 c 132
 431 357 422 355 412 355 c 4
 385 355 346 357 291 361 c 4
 290 361 291 361 290 361 c 5
 291 357 291 354 290 350 c 4
98 251 m 4
 98 253 98 252 99 253 c 6
 99 254 l 6
 98 255 98 256 98 257 c 4
 98 260 98 261 99 264 c 4
 102 276 107 285 119 290 c 4
 123 292 127 291 131 292 c 4
 134 292 133 292 136 292 c 4
 144 291 151 289 157 284 c 132
 163 279 168 270 169 262 c 4
 170 256 169 250 166 245 c 4
 165 243 166 242 166 240 c 4
 164 230 159 222 152 217 c 132
 145 212 136 210 126 212 c 132
 116 214 109 217 104 225 c 132
 99 233 96 242 98 251 c 4
EndSplineSet
EndChar

StartChar: at
Encoding: 64 64 61
Width: 480
Flags: HW
LayerCount: 2
Fore
SplineSet
361 372 m 5
 344 372 343 372 317 372 c 4
 296 372 296 372 267 372 c 4
 263 372 263 372 259 372 c 6
 258 372 l 5
 257 372 l 5
 256 372 l 5
 256 372 l 5
 254 372 l 5
 253 372 l 5
 252 372 l 5
 252 372 l 5
 252 372 l 6
 245 372 244 372 242 372 c 4
 234 372 219 371 198 374 c 4
 189 375 182 376 177 377 c 4
 164 378 153 379 144 378 c 4
 140 377 136 377 133 376 c 4
 131 375 131 375 130 374 c 4
 129 374 130 375 129 374 c 4
 125 372 122 372 118 371 c 5
 114 349 113 315 114 272 c 4
 114 266 114 266 114 255 c 4
 114 214 114 184 112 164 c 4
 111 160 110 155 109 149 c 4
 108 148 109 147 108 144 c 132
 107 140 108 141 107 137 c 6
 106 134 l 6
 105 130 105 126 104 122 c 4
 104 120 104 121 104 119 c 6
 105 119 l 6
 110 119 121 119 140 118 c 4
 160 117 179 117 198 116 c 4
 221 115 241 117 259 116 c 4
 303 115 336 114 361 115 c 4
 367 115 367 115 372 115 c 5
 365 152 362 199 361 254 c 4
 360 272 360 297 361 333 c 4
 361 359 361 360 361 372 c 5
92 431 m 4
 93 432 94 434 96 435 c 4
 108 441 122 444 140 446 c 4
 152 447 165 446 182 444 c 4
 188 443 195 444 204 443 c 4
 224 441 237 440 242 440 c 4
 244 440 244 440 251 440 c 4
 252 440 251 440 253 440 c 132
 255 440 254 440 256 440 c 6
 258 440 l 6
 262 440 262 440 266 440 c 4
 296 440 296 440 317 440 c 4
 339 440 357 440 370 439 c 4
 378 438 385 438 390 437 c 4
 394 436 396 437 399 436 c 132
 402 435 403 436 406 435 c 4
 411 433 415 430 419 426 c 4
 423 422 426 416 428 410 c 4
 429 407 430 405 430 401 c 132
 430 397 431 393 430 389 c 4
 430 386 430 387 430 383 c 6
 429 382 l 5
 429 380 l 6
 429 367 429 367 429 332 c 4
 428 297 428 272 429 254 c 4
 430 199 435 155 442 119 c 5
 442 117 l 5
 442 116 l 6
 443 115 443 117 443 116 c 4
 444 114 443 115 444 113 c 4
 445 111 444 110 445 108 c 4
 447 103 448 97 449 93 c 4
 450 88 449 84 448 80 c 4
 446 71 442 63 435 57 c 4
 431 54 426 53 422 51 c 4
 419 50 418 50 414 49 c 4
 410 48 406 48 400 47 c 4
 390 46 377 46 361 46 c 4
 336 45 301 46 257 47 c 4
 239 48 219 47 196 48 c 4
 192 48 185 49 175 49 c 132
 165 49 156 49 148 50 c 6
 138 50 l 6
 120 51 110 50 106 50 c 4
 105 50 105 50 104 50 c 132
 103 50 103 50 101 50 c 132
 99 50 101 50 100 50 c 4
 96 49 92 50 88 50 c 4
 82 50 76 50 71 51 c 4
 67 52 62 52 58 54 c 4
 50 58 44 63 40 71 c 4
 35 80 33 92 34 105 c 4
 35 113 34 122 36 133 c 4
 37 137 38 141 39 146 c 4
 39 147 38 147 39 150 c 132
 40 154 40 153 41 157 c 132
 42 160 42 161 42 162 c 4
 43 166 43 168 43 170 c 4
 45 188 45 215 45 254 c 4
 45 266 45 267 45 272 c 4
 44 300 44 322 46 339 c 4
 48 364 51 385 55 405 c 4
 57 413 61 421 68 425 c 132
 75 429 83 432 92 431 c 4
197 257 m 4
 199 263 203 269 207 275 c 4
 213 283 220 286 230 287 c 132
 240 288 248 286 256 280 c 4
 259 278 260 276 262 273 c 4
 264 271 266 270 268 268 c 4
 277 258 278 246 274 234 c 4
 272 229 269 224 265 220 c 4
 262 218 260 217 257 215 c 4
 255 214 254 213 253 212 c 4
 250 211 248 212 244 211 c 4
 242 210 241 210 239 210 c 6
 238 209 l 5
 229 206 221 208 212 212 c 132
 203 216 199 224 196 233 c 4
 193 241 193 249 197 257 c 4
EndSplineSet
EndChar

StartChar: bar
Encoding: 124 124 62
Width: 480
VWidth: 0
Flags: HWO
LayerCount: 2
Fore
SplineSet
245 486.224609375 m 4
 266 482.174804688 280 464.35546875 275 447.344726562 c 4
 271 434.385742188 268 419.8046875 265 406.03515625 c 6
 261 137.924804688 l 5
 259 76.3642578125 l 6
 258 59.35546875 238 43.96484375 217 44.775390625 c 4
 196 45.5849609375 178 61.78515625 179 78.794921875 c 6
 181 139.544921875 l 5
 185 408.46484375 l 6
 185 409.275390625 185 411.705078125 185 413.325195312 c 4
 188 430.334960938 193 447.344726562 197 461.924804688 c 4
 202 478.935546875 224 490.275390625 245 486.224609375 c 4
EndSplineSet
EndChar

StartChar: exclam
Encoding: 33 33 63
Width: 480
VWidth: 1638
Flags: HW
LayerCount: 2
Fore
SplineSet
25 375 m 4
 25 377 25 378 25 380 c 4
 25 388 28 396 32 402 c 4
 37 410 45 415 55 417 c 4
 81 421 109 422 141 422 c 4
 146 422 147 422 152 422 c 4
 172 422 203 422 245 419 c 4
 251 418 256 418 259 418 c 4
 295 415 323 414 343 414 c 4
 373 414 400 416 424 420 c 4
 427 421 428 420 431 420 c 4
 438 420 445 418 451 414 c 4
 459 409 464 401 466 391 c 4
 466 388 467 386 467 384 c 4
 467 377 464 370 460 364 c 4
 454 356 446 351 436 349 c 4
 408 345 378 342 344 342 c 4
 325 342 303 342 277 344 c 5
 277 341 277 342 277 340 c 4
 277 337 278 332 278 327 c 132
 278 322 277 315 277 306 c 4
 277 262 278 226 280 200 c 4
 284 156 290 123 300 102 c 4
 304 92 310 87 314 84 c 4
 318 82 322 81 327 82 c 4
 328 83 328 83 329 84 c 4
 332 86 335 89 339 96 c 5
 339 97 l 5
 341 99 340 99 341 100 c 4
 347 109 353 118 357 122 c 4
 367 132 377 137 389 140 c 4
 392 141 395 141 398 141 c 4
 404 141 411 140 417 136 c 4
 426 131 430 124 433 114 c 4
 434 111 434 107 434 104 c 4
 434 98 432 92 429 87 c 4
 425 79 419 74 410 71 c 5
 408 69 406 65 402 60 c 4
 401 59 401 59 399 57 c 5
 396 52 l 5
 391 45 387 40 383 36 c 4
 375 29 356 15 343 12 c 4
 335 10 328 9 321 9 c 4
 305 9 289 13 276 22 c 4
 259 32 247 48 236 70 c 5
 231 56 223 45 215 35 c 4
 204 22 192 13 177 9 c 4
 171 7 164 6 158 6 c 4
 149 6 140 8 130 12 c 4
 103 22 72 45 38 84 c 4
 32 90 29 99 29 108 c 4
 29 109 30 109 30 110 c 4
 31 120 35 128 42 135 c 4
 48 141 56 145 65 145 c 4
 67 145 66 145 68 145 c 4
 78 144 86 139 92 132 c 4
 118 103 139 85 154 80 c 4
 156 79 156 79 157 79 c 4
 158 80 159 80 160 81 c 4
 166 89 172 104 176 126 c 4
 180 146 184 173 187 208 c 4
 188 215 187 224 188 234 c 4
 188 238 187 241 188 246 c 6
 189 249 l 6
 189 252 189 252 189 255 c 132
 189 258 189 258 189 260 c 4
 191 285 192 303 194 315 c 4
 196 328 197 339 199 348 c 5
 181 349 165 350 151 350 c 4
 146 350 145 350 140 350 c 4
 112 350 89 349 67 345 c 4
 65 345 63 345 61 345 c 4
 54 345 46 347 40 351 c 4
 32 357 27 365 25 375 c 4
EndSplineSet
EndChar

StartChar: Q
Encoding: 81 81 64
Width: 480
VWidth: 1638
Flags: HW
LayerCount: 2
Fore
SplineSet
33 217 m 4
 28 235 26 252 26 269 c 4
 26 297 33 323 46 347 c 4
 70 389 112 417 172 434 c 4
 193 440 212 444 229 447 c 4
 239 448 248 449 256 449 c 4
 271 449 285 447 297 443 c 4
 341 428 372 394 388 341 c 4
 395 318 398 294 398 268 c 4
 398 247 395 224 390 201 c 4
 385 177 377 156 366 136 c 5
 370 133 375 130 379 126 c 4
 394 114 409 108 423 104 c 4
 433 101 439 95 444 86 c 4
 447 81 449 74 449 68 c 4
 449 64 448 62 447 58 c 4
 443 48 438 41 429 36 c 4
 424 33 417 31 412 31 c 4
 408 31 406 32 402 33 c 4
 381 39 358 50 336 66 c 4
 331 70 325 73 321 77 c 5
 305 63 287 53 268 48 c 5
 264 38 259 31 249 27 c 4
 244 24 238 23 233 23 c 6
 221 26 l 5
 177 42 138 66 103 102 c 132
 68 138 45 176 33 217 c 4
105 238 m 4
 111 217 122 196 137 176 c 132
 152 156 171 138 192 123 c 5
 197 124 203 124 207 122 c 4
 216 118 224 116 232 116 c 4
 244 116 255 120 265 126 c 5
 257 133 250 140 243 145 c 4
 230 156 216 163 204 167 c 4
 194 171 188 178 184 188 c 4
 182 192 180 198 180 202 c 4
 180 206 182 211 184 215 c 4
 188 225 194 232 204 236 c 4
 208 238 214 238 218 238 c 132
 222 238 228 238 232 236 c 4
 250 229 267 218 286 204 c 4
 293 199 301 192 308 186 c 5
 312 196 314 206 317 217 c 4
 321 236 324 252 324 269 c 4
 324 287 321 304 317 320 c 4
 308 348 294 365 274 372 c 4
 269 374 263 374 256 374 c 4
 240 374 220 371 193 364 c 4
 151 352 123 333 110 309 c 4
 103 297 100 283 100 269 c 4
 100 259 101 250 105 238 c 4
EndSplineSet
EndChar

StartChar: backslash
Encoding: 92 92 65
Width: 480
Flags: HW
LayerCount: 2
Fore
SplineSet
424 65 m 4
 410 82 395 101 378 122 c 4
 369 134 357 147 343 164 c 4
 341 167 338 171 334 175 c 4
 332 177 329 182 325 187 c 4
 318 196 312 202 308 208 c 4
 267 259 234 300 208 331 c 4
 170 375 134 413 100 447 c 4
 93 454 85 459 73 459 c 132
 61 459 52 455 44 447 c 132
 36 439 33 430 33 419 c 132
 33 408 37 398 44 390 c 4
 76 358 112 321 148 278 c 4
 174 248 205 207 245 157 c 4
 249 152 256 145 263 136 c 4
 264 135 265 134 267 132 c 132
 269 130 269 129 270 128 c 6
 272 125 l 6
 276 121 278 119 281 115 c 4
 295 98 307 83 316 71 c 4
 334 50 349 30 363 13 c 4
 370 4 379 0 390 -1 c 132
 401 -2 411 1 420 8 c 132
 429 15 432 25 433 36 c 132
 434 47 431 56 424 65 c 4
EndSplineSet
EndChar

StartChar: e
Encoding: 101 101 66
Width: 480
Flags: HW
LayerCount: 2
Fore
SplineSet
110 389 m 1
 138 398 181 402 238 400 c 0
 261 399 289 398 325 394 c 0
 326 393 331 393 340 392 c 1
 342 377 343 359 344 341 c 0
 345 324 345 302 346 274 c 1
 328 268 301 267 265 271 c 0
 261 272 254 273 244 275 c 0
 211 279 187 281 172 281 c 0
 160 281 151 277 143 269 c 128
 135 261 132 253 132 241 c 128
 132 229 135 220 143 212 c 128
 151 204 160 201 172 201 c 0
 184 201 204 199 232 195 c 0
 242 194 250 193 255 192 c 0
 282 188 305 187 324 188 c 0
 333 189 341 190 348 191 c 1
 348 188 347 186 348 183 c 0
 348 179 348 176 348 172 c 128
 348 168 349 162 350 153 c 2
 351 148 l 2
 352 144 352 141 353 137 c 128
 354 133 354 131 355 129 c 0
 356 122 356 114 357 109 c 0
 358 99 358 91 359 85 c 1
 353 84 347 85 340 84 c 0
 316 82 283 82 242 83 c 0
 221 84 195 83 166 84 c 0
 162 84 155 83 143 84 c 128
 131 85 125 85 123 85 c 0
 109 86 98 86 93 86 c 0
 81 86 73 83 65 75 c 128
 57 67 53 57 53 46 c 128
 53 35 57 26 65 18 c 128
 73 10 81 5 93 5 c 0
 100 5 100 5 120 5 c 0
 122 5 128 5 140 4 c 128
 152 3 160 4 164 4 c 0
 193 3 219 4 240 3 c 0
 284 2 317 2 343 4 c 0
 360 5 373 6 384 8 c 0
 391 9 398 10 402 12 c 0
 412 16 419 22 424 28 c 0
 431 35 436 43 438 55 c 0
 439 61 439 68 439 76 c 0
 439 88 438 102 436 119 c 0
 435 125 435 132 434 140 c 0
 433 141 433 144 433 147 c 128
 433 150 432 152 431 155 c 128
 430 158 430 160 430 162 c 2
 430 164 l 2
 429 170 428 175 428 176 c 0
 428 180 429 183 428 187 c 0
 427 203 427 227 426 260 c 0
 425 298 424 327 423 347 c 0
 421 380 418 409 414 436 c 0
 413 439 413 440 412 444 c 0
 410 449 406 454 402 458 c 128
 398 462 392 466 387 468 c 0
 383 469 381 467 377 468 c 0
 373 468 364 469 352 471 c 128
 340 473 333 473 332 473 c 0
 296 477 266 479 241 480 c 0
 173 483 121 478 84 466 c 0
 80 464 80 464 77 463 c 0
 69 460 62 456 57 452 c 0
 43 440 36 426 39 408 c 0
 41 397 47 388 56 382 c 128
 65 376 74 373 86 375 c 0
 96 377 104 381 110 389 c 1
EndSplineSet
EndChar

StartChar: r
Encoding: 114 114 67
Width: 480
Flags: HW
LayerCount: 2
Fore
SplineSet
201 196 m 5
 191 190 184 187 182 186 c 4
 150 166 126 147 108 133 c 4
 80 111 58 90 44 68 c 4
 38 59 37 49 39 38 c 132
 41 27 47 18 56 12 c 132
 65 6 75 4 86 7 c 132
 97 10 105 15 111 24 c 4
 121 39 137 54 157 71 c 4
 173 83 197 98 225 117 c 4
 227 119 233 123 243 129 c 132
 253 135 258 139 260 140 c 4
 273 149 283 155 292 161 c 4
 294 163 296 163 298 164 c 5
 294 109 292 67 292 34 c 4
 292 22 296 13 304 5 c 132
 312 -3 320 -6 332 -6 c 132
 344 -6 353 -3 361 5 c 132
 369 13 372 22 372 34 c 4
 372 67 376 117 380 185 c 4
 383 229 384 262 385 284 c 4
 387 320 387 352 386 380 c 5
 394 380 401 384 408 388 c 132
 415 392 419 399 422 407 c 4
 426 417 424 427 420 437 c 132
 416 447 408 455 398 459 c 4
 386 463 372 466 357 468 c 4
 351 471 345 472 339 471 c 4
 338 471 336 471 335 470 c 4
 312 472 289 472 265 468 c 4
 235 464 195 453 148 436 c 4
 122 427 101 414 86 396 c 132
 71 378 62 358 60 338 c 132
 58 318 62 296 73 276 c 132
 84 256 101 237 124 222 c 4
 144 210 171 200 201 196 c 5
287 277 m 4
 267 273 247 272 223 275 c 132
 199 278 180 283 167 291 c 4
 155 298 148 305 144 313 c 4
 140 319 139 324 140 329 c 132
 141 334 144 340 148 344 c 4
 154 351 161 356 173 360 c 4
 217 375 250 384 276 388 c 4
 285 389 295 390 305 391 c 5
 307 361 307 326 305 287 c 5
 301 286 299 285 295 283 c 4
 293 282 292 280 289 278 c 4
 288 277 288 277 287 277 c 4
EndSplineSet
EndChar

StartChar: equal
Encoding: 61 61 68
Width: 480
Flags: HW
LayerCount: 2
Fore
SplineSet
412 270 m 4
 392 267 371 266 346 267 c 4
 325 268 302 260 281 267 c 5
 289 256 298 245 310 234 c 4
 322 222 340 205 363 185 c 4
 364 184 364 184 366 182 c 132
 368 180 369 180 371 178 c 132
 373 176 373 176 374 175 c 4
 397 155 416 138 428 126 c 4
 434 119 437 112 437 102 c 132
 437 92 434 84 428 77 c 132
 422 70 414 68 404 68 c 132
 394 68 386 70 380 77 c 4
 368 89 351 104 329 124 c 4
 328 125 327 125 325 127 c 132
 323 129 323 130 321 132 c 132
 319 134 318 133 317 133 c 4
 292 155 273 173 261 185 c 4
 254 192 254 193 247 200 c 5
 244 197 243 194 239 191 c 4
 237 189 238 191 235 188 c 132
 233 186 230 184 228 182 c 132
 226 180 224 179 222 176 c 132
 220 173 219 172 217 170 c 132
 215 168 213 166 211 164 c 132
 209 162 208 162 206 161 c 6
 205 159 l 6
 183 137 164 119 152 105 c 4
 134 85 120 69 109 52 c 4
 104 44 96 38 87 36 c 132
 78 34 69 37 61 42 c 132
 53 47 49 54 47 64 c 132
 45 74 47 81 52 89 c 4
 64 109 81 130 101 152 c 4
 114 167 134 186 158 208 c 6
 161 211 l 6
 164 214 163 214 167 218 c 132
 171 222 172 222 176 226 c 132
 179 229 182 232 185 235 c 132
 188 238 189 238 191 240 c 4
 199 248 199 248 206 255 c 5
 204 259 204 262 204 266 c 5
 191 265 189 265 176 264 c 4
 146 262 120 259 98 254 c 4
 94 253 91 252 87 252 c 4
 86 252 87 252 86 252 c 4
 77 247 68 246 59 250 c 132
 50 254 42 259 38 268 c 132
 34 277 33 284 36 293 c 4
 39 301 44 307 50 312 c 4
 54 316 60 318 66 320 c 4
 70 321 76 321 82 321 c 6
 83 321 l 5
 108 326 137 329 172 332 c 4
 195 334 225 335 263 335 c 4
 268 335 269 335 280 335 c 4
 337 334 378 336 405 339 c 4
 414 340 423 337 430 331 c 132
 437 325 442 318 443 308 c 132
 444 298 441 290 435 283 c 132
 429 276 421 271 412 270 c 4
EndSplineSet
EndChar

StartChar: q
Encoding: 113 113 69
Width: 480
VWidth: 1638
Flags: HW
LayerCount: 2
Fore
SplineSet
439 217 m 4
 444 235 446 252 446 269 c 4
 446 297 439 323 426 347 c 4
 402 389 360 417 300 434 c 4
 279 440 260 444 243 447 c 4
 233 448 224 449 216 449 c 4
 201 449 187 447 175 443 c 4
 131 428 100 394 84 341 c 4
 77 318 74 294 74 268 c 4
 74 247 77 224 82 201 c 4
 87 177 95 156 106 136 c 5
 102 133 97 130 93 126 c 4
 78 114 63 108 49 104 c 4
 39 101 33 95 28 86 c 4
 25 81 23 74 23 68 c 4
 23 64 24 62 25 58 c 4
 29 48 34 41 43 36 c 4
 48 33 55 31 60 31 c 4
 64 31 66 32 70 33 c 4
 91 39 114 50 136 66 c 4
 141 70 147 73 151 77 c 5
 167 63 185 53 204 48 c 5
 208 38 213 31 223 27 c 4
 228 24 234 23 239 23 c 6
 251 26 l 5
 295 42 334 66 369 102 c 132
 404 138 427 176 439 217 c 4
367 238 m 4
 361 217 350 196 335 176 c 132
 320 156 301 138 280 123 c 5
 275 124 269 124 265 122 c 4
 256 118 248 116 240 116 c 4
 228 116 217 120 207 126 c 5
 215 133 222 140 229 145 c 4
 242 156 256 163 268 167 c 4
 278 171 284 178 288 188 c 4
 290 192 292 198 292 202 c 4
 292 206 290 211 288 215 c 4
 284 225 278 232 268 236 c 4
 264 238 258 238 254 238 c 132
 250 238 244 238 240 236 c 4
 222 229 205 218 186 204 c 4
 179 199 171 192 164 186 c 5
 160 196 158 206 155 217 c 4
 151 236 148 252 148 269 c 4
 148 287 151 304 155 320 c 4
 164 348 178 365 198 372 c 4
 203 374 209 374 216 374 c 4
 232 374 252 371 279 364 c 4
 321 352 349 333 362 309 c 4
 369 297 372 283 372 269 c 4
 372 259 371 250 367 238 c 4
EndSplineSet
EndChar

StartChar: zero
Encoding: 48 48 70
Width: 480
Flags: HW
LayerCount: 2
Fore
SplineSet
188 115 m 0
 174.382179958 115 163 126.382179958 163 140 c 2
 164 138 l 2
 164 176.475585938 216.690429688 223 255 223 c 0
 297.185546875 223 318.260180868 190.441490221 326.700648168 184.911533654 c 0
 330.381718983 182.499799682 333.414325293 179.073048852 335.360679775 175.180339887 c 2
 340.360679775 165.180339887 l 2
 346.450754039 153.00019136 341.360488415 137.729394489 329.180339887 131.639320225 c 0
 317.00019136 125.549245961 301.729394489 130.639511585 295.639320225 142.819660113 c 2
 292.657048272 148.784204019 l 1
 279.519299172 160.345907593 259.160128401 177 254 177 c 0
 247.355543902 177 213 142 213 142 c 1
 213 140 l 2
 213 126.382179958 201.617820042 115 188 115 c 0
139.34765625 318.453125 m 0
 147.765625 329.157226562 161.748060409 332.069573296 172.452865217 323.65219979 c 0
 208.518772199 295.292952202 220.202977243 270.189536237 243.13466014 272.835253723 c 0
 244.044752229 272.940254589 245.311984932 273 246 273 c 0
 295.887749499 273 267.284655342 295.009542217 312.804657731 329.851991672 c 0
 323.618291733 338.129089131 344.537874429 338.403735419 347.851991672 325.195342269 c 0
 350.565240198 314.381707557 352.235446071 298.425105562 343.195342269 290.148008328 c 0
 340.033317372 287.25286596 320.867854047 223.805379604 247.394917395 223.007553415 c 1
 190.106716546 217.369777331 160.209960938 270.24609375 143.546875 283.34765625 c 0
 132.842773438 291.765625 130.930664062 307.748046875 139.34765625 318.453125 c 0
374 282 m 1026
142 324 m 1026
223 90 m 5
 238.119140625 89.00390625 249.178710938 91.11328125 259 90 c 0
 268.786132812 88.890625 275.937255991 84.2343139977 283 86 c 0
 291 88 303 85 312 95 c 0
 334 120 348 156 356 202 c 0
 365 250 358.518824679 299.202938304 345 333 c 0
 333 363 315 379 288 381 c 0
 234 385 192 375 162 347 c 0
 136 324 122 291 120 252 c 0
 119 212 135.183625981 178.669473233 155 143 c 4
 170 116 195 102 223 90 c 5
248 0 m 0
 182 12 129 43 91 95 c 0
 55 142 38 195 40 255 c 0
 43 316 66 366 108 405 c 0
 155 448 217 466 293 461 c 0
 323 459 350 450 371 432 c 128
 392 414 408 392 420 363 c 0
 439 316 443 259 432 197 c 0
 421 136 399 88 368 52 c 0
 348 30 327 16 304 10 c 0
 294 7 286 5 276 5 c 1
 267 0 258 -2 248 0 c 0
EndSplineSet
EndChar

StartChar: bracketleft
Encoding: 91 91 71
Width: 480
VWidth: 1638
Flags: HW
LayerCount: 2
Fore
SplineSet
286 353 m 132
 286 347 285 339 285 330 c 4
 285 283 287 247 289 219 c 4
 293 172 299 137 310 115 c 4
 315 105 320 99 324 95 c 4
 328 93 334 92 339 93 c 4
 340 94 339 94 340 95 c 4
 343 97 346 101 350 108 c 5
 350 109 l 5
 352 111 353 113 354 114 c 4
 361 124 367 130 371 135 c 4
 381 145 392 153 404 156 c 4
 408 157 409 156 413 156 c 4
 419 156 427 155 433 151 c 4
 442 146 447 138 450 127 c 4
 451 123 451 121 451 117 c 4
 451 111 449 105 446 100 c 4
 442 92 435 85 426 82 c 5
 424 80 421 75 417 70 c 4
 416 69 416 69 414 67 c 5
 411 62 l 5
 406 55 401 48 397 44 c 4
 389 36 369 23 355 20 c 4
 347 18 340 17 332 17 c 4
 315 17 298 21 284 31 c 4
 266 42 254 59 242 82 c 5
 237 68 228 55 220 44 c 4
 208 31 196 21 180 17 c 4
 173 15 167 14 160 14 c 4
 150 14 140 16 130 20 c 4
 102 30 69 55 33 96 c 4
 27 103 24 111 24 121 c 4
 24 122 24 123 24 124 c 4
 25 135 29 143 37 150 c 4
 44 156 52 160 61 160 c 4
 63 160 63 160 65 160 c 4
 76 159 84 154 91 146 c 4
 119 115 140 97 156 92 c 4
 158 91 158 91 159 91 c 4
 160 92 161 91 162 92 c 4
 169 100 174 116 179 140 c 4
 183 161 185 191 189 227 c 4
 190 235 190 243 191 254 c 4
 191 258 191 263 192 268 c 6
 193 270 l 6
 193 273 193 272 193 276 c 132
 193 280 193 279 193 281 c 4
 195 307 195 327 197 340 c 4
 209 456 286 490 286 353 c 132
EndSplineSet
EndChar

StartChar: question
Encoding: 63 63 72
Width: 480
VWidth: 0
Flags: HW
LayerCount: 2
Fore
SplineSet
31 67 m 4
 31 82 43 95 58 95 c 6
 117 95 l 5
 91 127 73 151 73 200 c 6
 73 260 l 6
 73 368 172 452 271 452 c 4
 350 452 395 379 395 316 c 6
 395 274 l 6
 392 212 359 166 343 124 c 4
 343 123 363 103 364 103 c 6
 422 101 l 6
 437 101 449 89 449 74 c 4
 449 59 436 47 421 47 c 6
 364 48 l 6
 363 48 361 48 360 48 c 6
 360 48 274 31 274 85 c 4
 274 107 286 127 292 143 c 4
 312 194 338 234 340 275 c 6
 340 316 l 6
 340 359 311 396 271 396 c 4
 201 396 128 333 128 260 c 6
 128 200 l 6
 128 151 163 142 195 82 c 4
 196 80 198 75 198 71 c 4
 200 55 187 41 171 41 c 6
 59 40 l 6
 44 40 31 52 31 67 c 4
EndSplineSet
EndChar
